<svg version="1.1" xmlns="http://www.w3.org/2000/svg" viewBox="0 0 680 600" width="680" height="600">
  <!-- svg-source:excalidraw -->
  
  <defs>
    <style>
      @font-face {
        font-family: "Virgil";
        src: url("https://excalidraw.com/Virgil.woff2");
      }
      @font-face {
        font-family: "Cascadia";
        src: url("https://excalidraw.com/Cascadia.woff2");
      }
    </style>
  </defs>
  <rect x="0" y="0" width="680" height="600" fill="transparent"></rect><g stroke-linecap="round" transform="translate(10 110) rotate(0 80 36)"><path d="M18 0 L142 0 L149.88 1.13 L155.5 4.5 L157.47 7.03 L159.72 13.78 L160 54 L158.88 61.88 L157.47 64.97 L152.97 69.47 L149.88 70.88 L142 72 L18 72 L10.13 70.88 L4.5 67.5 L2.53 64.97 L0.28 58.22 L0.28 13.78 L1.13 10.13 L4.5 4.5 L10.13 1.13 L18 0" stroke="none" stroke-width="0" fill="#DEDEDE"></path><path d="M18 0 M18 0 C50.68 0, 83.37 0, 142 0 M18 0 C65.06 0, 112.12 0, 142 0 M142 0 C154 0, 160 6, 160 18 M142 0 C154 0, 160 6, 160 18 M160 18 C160 27.97, 160 37.95, 160 54 M160 18 C160 26.92, 160 35.85, 160 54 M160 54 C160 66, 154 72, 142 72 M160 54 C160 66, 154 72, 142 72 M142 72 C101.33 72, 60.65 72, 18 72 M142 72 C104.38 72, 66.77 72, 18 72 M18 72 C6 72, 0 66, 0 54 M18 72 C6 72, 0 66, 0 54 M0 54 C0 42.42, 0 30.84, 0 18 M0 54 C0 45.95, 0 37.9, 0 18 M0 18 C0 6, 6 0, 18 0 M0 18 C0 6, 6 0, 18 0" stroke="#000" stroke-width="2" fill="none"></path></g><g transform="translate(75 139) rotate(0 30 7)"><text x="0" y="11" font-family="Helvetica, Segoe UI Emoji" font-size="12px" fill="#000000" text-anchor="start" style="white-space: pre;" direction="ltr">Best Model</text></g><g stroke-linecap="round"><g transform="translate(26.5 130) rotate(0 16 16)" fill-rule="evenodd"><path d="M0 0 L32 0 L32 32 L0 32 L0 0" stroke="none" stroke-width="0" fill="#00000000" fill-rule="evenodd"></path><path d="M0 0 C6.79 0, 13.58 0, 32 0 M0 0 C11.07 0, 22.14 0, 32 0 M32 0 C32 12.48, 32 24.96, 32 32 M32 0 C32 11.51, 32 23.02, 32 32 M32 32 C22.63 32, 13.27 32, 0 32 M32 32 C21.57 32, 11.14 32, 0 32 M0 32 C0 22.03, 0 12.06, 0 0 M0 32 C0 19.41, 0 6.82, 0 0 M0 0 C0 0, 0 0, 0 0 M0 0 C0 0, 0 0, 0 0" stroke="#00000000" stroke-width="1" fill="none"></path></g></g><g stroke-linecap="round"><g transform="translate(45.16666793823242 132.66666674613953) rotate(0 -2.6666672229766846 13.333333611488342)" fill-rule="evenodd"><path d="M0 0 L-10.67 0 L-10.67 0 L-11.7 0.21 L-12.54 0.78 L-13.11 1.63 L-13.32 2.67 L-13.33 24 L-13.33 24 L-13.13 25.04 L-12.56 25.88 L-11.71 26.46 L-10.68 26.67 L5.33 26.67 L5.33 26.67 L6.37 26.46 L7.22 25.88 L7.79 25.04 L8 24 L8 8 L0 0 L0 0" stroke="none" stroke-width="0" fill="#000" fill-rule="evenodd"></path><path d="M0 0 C-2.67 0, -5.34 0, -10.67 0 M0 0 C-3.33 0, -6.66 0, -10.67 0 M-10.67 0 C-10.67 0, -10.67 0, -10.67 0 M-10.67 0 C-10.67 0, -10.67 0, -10.67 0 M-10.67 0 C-10.97 0.06, -11.27 0.12, -11.7 0.21 M-10.67 0 C-10.92 0.05, -11.17 0.1, -11.7 0.21 M-11.7 0.21 C-11.98 0.4, -12.25 0.58, -12.54 0.78 M-11.7 0.21 C-12.01 0.42, -12.32 0.63, -12.54 0.78 M-12.54 0.78 C-12.68 0.99, -12.82 1.2, -13.11 1.63 M-12.54 0.78 C-12.72 1.05, -12.9 1.32, -13.11 1.63 M-13.11 1.63 C-13.16 1.85, -13.2 2.06, -13.32 2.67 M-13.11 1.63 C-13.16 1.86, -13.2 2.09, -13.32 2.67 M-13.32 2.67 C-13.32 9.66, -13.33 16.66, -13.33 24 M-13.32 2.67 C-13.32 7.47, -13.33 12.28, -13.33 24 M-13.33 24 C-13.33 24, -13.33 24, -13.33 24 M-13.33 24 C-13.33 24, -13.33 24, -13.33 24 M-13.33 24 C-13.27 24.32, -13.2 24.64, -13.13 25.04 M-13.33 24 C-13.28 24.25, -13.23 24.51, -13.13 25.04 M-13.13 25.04 C-12.93 25.32, -12.74 25.61, -12.56 25.88 M-13.13 25.04 C-12.95 25.3, -12.77 25.56, -12.56 25.88 M-12.56 25.88 C-12.38 26, -12.2 26.12, -11.71 26.46 M-12.56 25.88 C-12.29 26.07, -12.01 26.25, -11.71 26.46 M-11.71 26.46 C-11.41 26.52, -11.11 26.58, -10.68 26.67 M-11.71 26.46 C-11.33 26.53, -10.94 26.61, -10.68 26.67 M-10.68 26.67 C-4.41 26.67, 1.85 26.67, 5.33 26.67 M-10.68 26.67 C-4.55 26.67, 1.59 26.67, 5.33 26.67 M5.33 26.67 C5.33 26.67, 5.33 26.67, 5.33 26.67 M5.33 26.67 C5.33 26.67, 5.33 26.67, 5.33 26.67 M5.33 26.67 C5.61 26.61, 5.89 26.55, 6.37 26.46 M5.33 26.67 C5.57 26.62, 5.81 26.57, 6.37 26.46 M6.37 26.46 C6.66 26.26, 6.95 26.06, 7.22 25.88 M6.37 26.46 C6.56 26.32, 6.76 26.19, 7.22 25.88 M7.22 25.88 C7.33 25.71, 7.45 25.54, 7.79 25.04 M7.22 25.88 C7.36 25.68, 7.5 25.47, 7.79 25.04 M7.79 25.04 C7.84 24.79, 7.89 24.54, 8 24 M7.79 25.04 C7.86 24.71, 7.92 24.39, 8 24 M8 24 C8 20.74, 8 17.48, 8 8 M8 24 C8 19.53, 8 15.07, 8 8 M8 8 C6.05 6.05, 4.1 4.1, 0 0 M8 8 C6.2 6.2, 4.4 4.4, 0 0 M0 0 C0 0, 0 0, 0 0 M0 0 C0 0, 0 0, 0 0 M0 0 C0 0, 0 0, 0 0 M0 0 C0 0, 0 0, 0 0" stroke="#00000000" stroke-width="1" fill="none"></path></g></g><g stroke-linecap="round"><g transform="translate(47.83333396911621 154) rotate(0 -5.333333492279053 -1.3333330154418945)" fill-rule="evenodd"><path d="M0 0 L-10.67 0 L-10.67 -2.67 L0 -2.67 L0 0" stroke="none" stroke-width="0" fill="#DEDEDE" fill-rule="evenodd"></path><path d="M0 0 C-3.95 0, -7.91 0, -10.67 0 M0 0 C-2.9 0, -5.79 0, -10.67 0 M-10.67 0 C-10.67 -0.58, -10.67 -1.17, -10.67 -2.67 M-10.67 0 C-10.67 -0.67, -10.67 -1.33, -10.67 -2.67 M-10.67 -2.67 C-7.8 -2.67, -4.93 -2.67, 0 -2.67 M-10.67 -2.67 C-6.86 -2.67, -3.06 -2.67, 0 -2.67 M0 -2.67 C0 -1.91, 0 -1.16, 0 0 M0 -2.67 C0 -1.65, 0 -0.63, 0 0 M0 0 C0 0, 0 0, 0 0 M0 0 C0 0, 0 0, 0 0" stroke="#00000000" stroke-width="1" fill="none"></path></g></g><g stroke-linecap="round"><g transform="translate(47.83333396911621 148.66666793823242) rotate(0 -5.333333492279053 -1.333333969116211)" fill-rule="evenodd"><path d="M0 0 L-10.67 0 L-10.67 -2.67 L0 -2.67 L0 0" stroke="none" stroke-width="0" fill="#DEDEDE" fill-rule="evenodd"></path><path d="M0 0 C-3.87 0, -7.75 0, -10.67 0 M0 0 C-3.8 0, -7.61 0, -10.67 0 M-10.67 0 C-10.67 -0.94, -10.67 -1.89, -10.67 -2.67 M-10.67 0 C-10.67 -0.93, -10.67 -1.86, -10.67 -2.67 M-10.67 -2.67 C-7.33 -2.67, -3.99 -2.67, 0 -2.67 M-10.67 -2.67 C-6.61 -2.67, -2.55 -2.67, 0 -2.67 M0 -2.67 C0 -1.84, 0 -1.01, 0 0 M0 -2.67 C0 -1.9, 0 -1.12, 0 0 M0 0 C0 0, 0 0, 0 0 M0 0 C0 0, 0 0, 0 0" stroke="#00000000" stroke-width="1" fill="none"></path></g></g><g stroke-linecap="round"><g transform="translate(43.83333396911621 142) rotate(0 3.6666669845581055 -3.6666665077209473)" fill-rule="evenodd"><path d="M0 0 L0 -7.33 L7.33 0 L0 0" stroke="none" stroke-width="0" fill="#DEDEDE" fill-rule="evenodd"></path><path d="M0 0 C0 -2.42, 0 -4.83, 0 -7.33 M0 0 C0 -2.84, 0 -5.69, 0 -7.33 M0 -7.33 C1.74 -5.6, 3.47 -3.86, 7.33 0 M0 -7.33 C2.88 -4.46, 5.75 -1.58, 7.33 0 M7.33 0 C5.52 0, 3.72 0, 0 0 M7.33 0 C5.01 0, 2.68 0, 0 0 M0 0 C0 0, 0 0, 0 0 M0 0 C0 0, 0 0, 0 0" stroke="#00000000" stroke-width="1" fill="none"></path></g></g><g stroke-linecap="round" transform="translate(410 110) rotate(0 80 36)"><path d="M18 0 L142 0 L149.88 1.13 L155.5 4.5 L157.47 7.03 L159.72 13.78 L160 54 L158.88 61.88 L157.47 64.97 L152.97 69.47 L149.88 70.88 L142 72 L18 72 L10.13 70.88 L4.5 67.5 L2.53 64.97 L0.28 58.22 L0.28 13.78 L1.13 10.13 L4.5 4.5 L10.13 1.13 L18 0" stroke="none" stroke-width="0" fill="#FFF"></path><path d="M18 0 M18 0 C58.49 0, 98.98 0, 142 0 M18 0 C62.81 0, 107.62 0, 142 0 M142 0 C154 0, 160 6, 160 18 M142 0 C154 0, 160 6, 160 18 M160 18 C160 26.8, 160 35.6, 160 54 M160 18 C160 25.44, 160 32.89, 160 54 M160 54 C160 66, 154 72, 142 72 M160 54 C160 66, 154 72, 142 72 M142 72 C116.14 72, 90.28 72, 18 72 M142 72 C107.11 72, 72.21 72, 18 72 M18 72 C6 72, 0 66, 0 54 M18 72 C6 72, 0 66, 0 54 M0 54 C0 42.19, 0 30.38, 0 18 M0 54 C0 41.57, 0 29.15, 0 18 M0 18 C0 6, 6 0, 18 0 M0 18 C0 6, 6 0, 18 0" stroke="#4285f4" stroke-width="2" fill="none"></path></g><g transform="translate(475 139) rotate(0 42.5 7)"><text x="0" y="13" font-family="Helvetica, Segoe UI Emoji" font-size="12px" fill="#000000" text-anchor="start" style="white-space: pre;" direction="ltr">Cloud Storage</text></g><g stroke-linecap="round" transform="translate(429.1666667461395 135.33333349227905) rotate(0 13.333333969116211 4.6666669845581055)"><path d="M0 0 L26.67 0 L26.67 9.33 L0 9.33" stroke="none" stroke-width="0" fill="#aecbfa"></path><path d="M0 0 C9.44 0, 18.87 0, 26.67 0 M0 0 C9.31 0, 18.63 0, 26.67 0 M26.67 0 C26.67 2.92, 26.67 5.85, 26.67 9.33 M26.67 0 C26.67 3.55, 26.67 7.11, 26.67 9.33 M26.67 9.33 C18.41 9.33, 10.14 9.33, 0 9.33 M26.67 9.33 C18.95 9.33, 11.24 9.33, 0 9.33 M0 9.33 C0 6.59, 0 3.85, 0 0 M0 9.33 C0 6.97, 0 4.61, 0 0" stroke="transparent" stroke-width="1" fill="none"></path></g><g stroke-linecap="round" transform="translate(453.1666679382324 135.33333349227905) rotate(0 1.3333333730697632 4.6666669845581055)"><path d="M0 0 L2.67 0 L2.67 9.33 L0 9.33" stroke="none" stroke-width="0" fill="#669df6"></path><path d="M0 0 C0.63 0, 1.26 0, 2.67 0 M0 0 C1.05 0, 2.09 0, 2.67 0 M2.67 0 C2.67 2.3, 2.67 4.61, 2.67 9.33 M2.67 0 C2.67 2.96, 2.67 5.92, 2.67 9.33 M2.67 9.33 C2.05 9.33, 1.43 9.33, 0 9.33 M2.67 9.33 C2.11 9.33, 1.56 9.33, 0 9.33 M0 9.33 C0 5.86, 0 2.38, 0 0 M0 9.33 C0 6.45, 0 3.57, 0 0" stroke="transparent" stroke-width="1" fill="none"></path></g><g stroke-linecap="round"><g transform="translate(455.8333339691162 135.33333349227905) rotate(0 -1.3333330154418945 4.666666746139526)" fill-rule="evenodd"><path d="M0 0 L-2.67 0 L-2.67 9.33 L0 0 L0 0" stroke="none" stroke-width="0" fill="#4285f4" fill-rule="evenodd"></path><path d="M0 0 C-0.9 0, -1.81 0, -2.67 0 M0 0 C-0.63 0, -1.26 0, -2.67 0 M-2.67 0 C-2.67 3.54, -2.67 7.08, -2.67 9.33 M-2.67 0 C-2.67 2.63, -2.67 5.25, -2.67 9.33 M-2.67 9.33 C-2.01 7.02, -1.34 4.71, 0 0 M-2.67 9.33 C-1.96 6.87, -1.26 4.4, 0 0 M0 0 C0 0, 0 0, 0 0 M0 0 C0 0, 0 0, 0 0 M0 0 C0 0, 0 0, 0 0 M0 0 C0 0, 0 0, 0 0" stroke="#00000000" stroke-width="1" fill="none"></path></g></g><g stroke-linecap="round" transform="translate(429.1666667461395 135.33333349227905) rotate(0 1.3333333730697632 4.6666669845581055)"><path d="M0 0 L2.67 0 L2.67 9.33 L0 9.33" stroke="none" stroke-width="0" fill="#669df6"></path><path d="M0 0 C0.65 0, 1.3 0, 2.67 0 M0 0 C0.91 0, 1.82 0, 2.67 0 M2.67 0 C2.67 2.42, 2.67 4.84, 2.67 9.33 M2.67 0 C2.67 2.86, 2.67 5.73, 2.67 9.33 M2.67 9.33 C1.73 9.33, 0.8 9.33, 0 9.33 M2.67 9.33 C2.03 9.33, 1.39 9.33, 0 9.33 M0 9.33 C0 6.61, 0 3.89, 0 0 M0 9.33 C0 6.07, 0 2.81, 0 0" stroke="transparent" stroke-width="1" fill="none"></path></g><g stroke-linecap="round" transform="translate(434.5 139.3333339691162) rotate(0 4 0.6666666865348816)"><path d="M0 0 L8 0 L8 1.33 L0 1.33" stroke="none" stroke-width="0" fill="#fff"></path><path d="M0 0 C3.18 0, 6.36 0, 8 0 M0 0 C2.46 0, 4.93 0, 8 0 M8 0 C8 0.35, 8 0.7, 8 1.33 M8 0 C8 0.51, 8 1.02, 8 1.33 M8 1.33 C5.89 1.33, 3.78 1.33, 0 1.33 M8 1.33 C5 1.33, 2 1.33, 0 1.33 M0 1.33 C0 0.97, 0 0.6, 0 0 M0 1.33 C0 1.06, 0 0.78, 0 0" stroke="transparent" stroke-width="1" fill="none"></path></g><g stroke-linecap="round" transform="translate(446.5 138) rotate(0 2 2)"><path d="M1 0 L3.75 0.25 L3.75 3.75 L0.25 3.75 L0 1 L1 0" stroke="none" stroke-width="0" fill="#fff"></path><path d="M1 0 M1 0 C1.53 0, 2.05 0, 3 0 M1 0 C1.76 0, 2.52 0, 3 0 M3 0 C3.67 0, 4 0.33, 4 1 M3 0 C3.67 0, 4 0.33, 4 1 M4 1 C4 1.55, 4 2.11, 4 3 M4 1 C4 1.5, 4 1.99, 4 3 M4 3 C4 3.67, 3.67 4, 3 4 M4 3 C4 3.67, 3.67 4, 3 4 M3 4 C2.34 4, 1.69 4, 1 4 M3 4 C2.39 4, 1.79 4, 1 4 M1 4 C0.33 4, 0 3.67, 0 3 M1 4 C0.33 4, 0 3.67, 0 3 M0 3 C0 2.36, 0 1.71, 0 1 M0 3 C0 2.55, 0 2.11, 0 1 M0 1 C0 0.33, 0.33 0, 1 0 M0 1 C0 0.33, 0.33 0, 1 0" stroke="transparent" stroke-width="1" fill="none"></path></g><g stroke-linecap="round" transform="translate(429.1666667461395 147.3333339691162) rotate(0 13.333333969116211 4.6666669845581055)"><path d="M0 0 L26.67 0 L26.67 9.33 L0 9.33" stroke="none" stroke-width="0" fill="#aecbfa"></path><path d="M0 0 C8.89 0, 17.77 0, 26.67 0 M0 0 C7.03 0, 14.06 0, 26.67 0 M26.67 0 C26.67 3.53, 26.67 7.06, 26.67 9.33 M26.67 0 C26.67 2.59, 26.67 5.17, 26.67 9.33 M26.67 9.33 C18.54 9.33, 10.41 9.33, 0 9.33 M26.67 9.33 C17.92 9.33, 9.17 9.33, 0 9.33 M0 9.33 C0 6.36, 0 3.38, 0 0 M0 9.33 C0 6.33, 0 3.33, 0 0" stroke="transparent" stroke-width="1" fill="none"></path></g><g stroke-linecap="round" transform="translate(453.1666679382324 147.3333339691162) rotate(0 1.3333333730697632 4.6666669845581055)"><path d="M0 0 L2.67 0 L2.67 9.33 L0 9.33" stroke="none" stroke-width="0" fill="#669df6"></path><path d="M0 0 C0.73 0, 1.47 0, 2.67 0 M0 0 C0.88 0, 1.76 0, 2.67 0 M2.67 0 C2.67 2.74, 2.67 5.48, 2.67 9.33 M2.67 0 C2.67 2.29, 2.67 4.57, 2.67 9.33 M2.67 9.33 C2.04 9.33, 1.42 9.33, 0 9.33 M2.67 9.33 C2.11 9.33, 1.56 9.33, 0 9.33 M0 9.33 C0 6.62, 0 3.91, 0 0 M0 9.33 C0 5.71, 0 2.09, 0 0" stroke="transparent" stroke-width="1" fill="none"></path></g><g stroke-linecap="round"><g transform="translate(455.8333339691162 147.3333339691162) rotate(0 -1.3333330154418945 4.6666669845581055)" fill-rule="evenodd"><path d="M0 0 L-2.67 0 L-2.67 9.33 L0 0 L0 0" stroke="none" stroke-width="0" fill="#4285f4" fill-rule="evenodd"></path><path d="M0 0 C-0.96 0, -1.92 0, -2.67 0 M0 0 C-0.78 0, -1.56 0, -2.67 0 M-2.67 0 C-2.67 3.04, -2.67 6.08, -2.67 9.33 M-2.67 0 C-2.67 2.91, -2.67 5.82, -2.67 9.33 M-2.67 9.33 C-1.62 5.66, -0.57 1.99, 0 0 M-2.67 9.33 C-1.74 6.08, -0.81 2.82, 0 0 M0 0 C0 0, 0 0, 0 0 M0 0 C0 0, 0 0, 0 0 M0 0 C0 0, 0 0, 0 0 M0 0 C0 0, 0 0, 0 0" stroke="#00000000" stroke-width="1" fill="none"></path></g></g><g stroke-linecap="round" transform="translate(429.1666667461395 147.3333339691162) rotate(0 1.3333333730697632 4.6666669845581055)"><path d="M0 0 L2.67 0 L2.67 9.33 L0 9.33" stroke="none" stroke-width="0" fill="#669df6"></path><path d="M0 0 C0.89 0, 1.78 0, 2.67 0 M0 0 C0.78 0, 1.56 0, 2.67 0 M2.67 0 C2.67 2.27, 2.67 4.55, 2.67 9.33 M2.67 0 C2.67 3.05, 2.67 6.1, 2.67 9.33 M2.67 9.33 C1.69 9.33, 0.72 9.33, 0 9.33 M2.67 9.33 C2.01 9.33, 1.36 9.33, 0 9.33 M0 9.33 C0 6.38, 0 3.43, 0 0 M0 9.33 C0 7.39, 0 5.44, 0 0" stroke="transparent" stroke-width="1" fill="none"></path></g><g stroke-linecap="round" transform="translate(434.5 151.3333339691162) rotate(0 4 0.6666666865348816)"><path d="M0 0 L8 0 L8 1.33 L0 1.33" stroke="none" stroke-width="0" fill="#fff"></path><path d="M0 0 C2 0, 4 0, 8 0 M0 0 C2.15 0, 4.3 0, 8 0 M8 0 C8 0.48, 8 0.95, 8 1.33 M8 0 C8 0.38, 8 0.75, 8 1.33 M8 1.33 C4.94 1.33, 1.88 1.33, 0 1.33 M8 1.33 C4.97 1.33, 1.93 1.33, 0 1.33 M0 1.33 C0 1.04, 0 0.75, 0 0 M0 1.33 C0 0.86, 0 0.39, 0 0" stroke="transparent" stroke-width="1" fill="none"></path></g><g stroke-linecap="round" transform="translate(446.5 150) rotate(0 2 2)"><path d="M1 0 L3.75 0.25 L3.75 3.75 L0.25 3.75 L0 1 L1 0" stroke="none" stroke-width="0" fill="#fff"></path><path d="M1 0 M1 0 C1.49 0, 1.99 0, 3 0 M1 0 C1.65 0, 2.3 0, 3 0 M3 0 C3.67 0, 4 0.33, 4 1 M3 0 C3.67 0, 4 0.33, 4 1 M4 1 C4 1.47, 4 1.93, 4 3 M4 1 C4 1.79, 4 2.57, 4 3 M4 3 C4 3.67, 3.67 4, 3 4 M4 3 C4 3.67, 3.67 4, 3 4 M3 4 C2.26 4, 1.51 4, 1 4 M3 4 C2.59 4, 2.18 4, 1 4 M1 4 C0.33 4, 0 3.67, 0 3 M1 4 C0.33 4, 0 3.67, 0 3 M0 3 C0 2.27, 0 1.54, 0 1 M0 3 C0 2.54, 0 2.08, 0 1 M0 1 C0 0.33, 0.33 0, 1 0 M0 1 C0 0.33, 0.33 0, 1 0" stroke="transparent" stroke-width="1" fill="none"></path></g><g stroke-linecap="round" transform="translate(410 270) rotate(0 80 36)"><path d="M18 0 L142 0 L149.88 1.13 L155.5 4.5 L157.47 7.03 L159.72 13.78 L160 54 L158.88 61.88 L157.47 64.97 L152.97 69.47 L149.88 70.88 L142 72 L18 72 L10.13 70.88 L4.5 67.5 L2.53 64.97 L0.28 58.22 L0.28 13.78 L1.13 10.13 L4.5 4.5 L10.13 1.13 L18 0" stroke="none" stroke-width="0" fill="#FFF"></path><path d="M18 0 M18 0 C67.53 0, 117.07 0, 142 0 M18 0 C47.54 0, 77.09 0, 142 0 M142 0 C154 0, 160 6, 160 18 M142 0 C154 0, 160 6, 160 18 M160 18 C160 26.22, 160 34.44, 160 54 M160 18 C160 28.46, 160 38.92, 160 54 M160 54 C160 66, 154 72, 142 72 M160 54 C160 66, 154 72, 142 72 M142 72 C111.51 72, 81.01 72, 18 72 M142 72 C105.57 72, 69.13 72, 18 72 M18 72 C6 72, 0 66, 0 54 M18 72 C6 72, 0 66, 0 54 M0 54 C0 45.33, 0 36.66, 0 18 M0 54 C0 41.76, 0 29.52, 0 18 M0 18 C0 6, 6 0, 18 0 M0 18 C0 6, 6 0, 18 0" stroke="#4285f4" stroke-width="2" fill="none"></path></g><g transform="translate(475 299) rotate(0 42.5 7)"><text x="0" y="13" font-family="Helvetica, Segoe UI Emoji" font-size="12px" fill="#000000" text-anchor="start" style="white-space: pre;" direction="ltr">Cloud Functions</text></g><g stroke-linecap="round"><g transform="translate(428.31317007541656 310.98376846313477) rotate(0 2.121898829936981 -5.035223007202148)" fill-rule="evenodd"><path d="M0 0 L4.24 3.45 L4.24 -13.52 L0 -10.09 L0 0" stroke="none" stroke-width="0" fill="#669df6" fill-rule="evenodd"></path><path d="M0 0 C1.02 0.83, 2.03 1.65, 4.24 3.45 M0 0 C1.24 1.01, 2.48 2.01, 4.24 3.45 M4.24 3.45 C4.24 -2.48, 4.24 -8.41, 4.24 -13.52 M4.24 3.45 C4.24 -2.14, 4.24 -7.73, 4.24 -13.52 M4.24 -13.52 C3.04 -12.54, 1.83 -11.57, 0 -10.09 M4.24 -13.52 C2.59 -12.18, 0.93 -10.84, 0 -10.09 M0 -10.09 C0 -7.43, 0 -4.78, 0 0 M0 -10.09 C0 -6.07, 0 -2.05, 0 0 M0 0 C0 0, 0 0, 0 0 M0 0 C0 0, 0 0, 0 0" stroke="#00000000" stroke-width="1" fill="none"></path></g></g><g stroke-linecap="round"><g transform="translate(428.31317007541656 303.1185312271118) rotate(0 2.121898829936981 -2.8275656700134277)" fill-rule="evenodd"><path d="M0 0 L4.24 -2.83 L4.24 -5.66 L0 0" stroke="none" stroke-width="0" fill="#4285f4" fill-rule="evenodd"></path><path d="M0 0 C1.59 -1.06, 3.18 -2.12, 4.24 -2.83 M0 0 C1.17 -0.78, 2.34 -1.56, 4.24 -2.83 M4.24 -2.83 C4.24 -3.41, 4.24 -4, 4.24 -5.66 M4.24 -2.83 C4.24 -3.67, 4.24 -4.51, 4.24 -5.66 M4.24 -5.66 C3.18 -4.23, 2.11 -2.81, 0 0 M4.24 -5.66 C3.04 -4.05, 1.83 -2.44, 0 0 M0 0 C0 0, 0 0, 0 0 M0 0 C0 0, 0 0, 0 0" stroke="#00000000" stroke-width="1" fill="none"></path></g></g><g stroke-linecap="round"><g transform="translate(432.5569677352905 314.4336910247803) rotate(0 -2.121898829936981 -2.830015182495117)" fill-rule="evenodd"><path d="M0 0 L0 -2.83 L-4.24 -5.66 L0 0" stroke="none" stroke-width="0" fill="#4285f4" fill-rule="evenodd"></path><path d="M0 0 C0 -0.96, 0 -1.92, 0 -2.83 M0 0 C0 -0.58, 0 -1.17, 0 -2.83 M0 -2.83 C-1.21 -3.64, -2.42 -4.45, -4.24 -5.66 M0 -2.83 C-1.19 -3.62, -2.39 -4.42, -4.24 -5.66 M-4.24 -5.66 C-2.57 -3.43, -0.9 -1.2, 0 0 M-4.24 -5.66 C-2.78 -3.71, -1.31 -1.75, 0 0 M0 0 C0 0, 0 0, 0 0 M0 0 C0 0, 0 0, 0 0" stroke="#00000000" stroke-width="1" fill="none"></path></g></g><g stroke-linecap="round"><g transform="translate(436.79586601257324 317.2612552642822) rotate(0 -4.241347968578339 -2.830014228820801)" fill-rule="evenodd"><path d="M0 0 L-8.48 -8.49 L-8.48 -2.83 L-2.83 2.83 L0 0" stroke="none" stroke-width="0" fill="#aecbfa" fill-rule="evenodd"></path><path d="M0 0 C-2.78 -2.78, -5.56 -5.57, -8.48 -8.49 M0 0 C-2.7 -2.71, -5.41 -5.41, -8.48 -8.49 M-8.48 -8.49 C-8.48 -6.67, -8.48 -4.85, -8.48 -2.83 M-8.48 -8.49 C-8.48 -7.07, -8.48 -5.65, -8.48 -2.83 M-8.48 -2.83 C-7.02 -1.36, -5.56 0.1, -2.83 2.83 M-8.48 -2.83 C-6.85 -1.19, -5.22 0.44, -2.83 2.83 M-2.83 2.83 C-1.83 1.83, -0.84 0.84, 0 0 M-2.83 2.83 C-2.21 2.21, -1.6 1.6, 0 0 M0 0 C0 0, 0 0, 0 0 M0 0 C0 0, 0 0, 0 0" stroke="#00000000" stroke-width="1" fill="none"></path></g></g><g stroke-linecap="round"><g transform="translate(433.9535994529724 291.8229709863663) rotate(0 -1.4039823412895203 5.647780120372772)" fill-rule="evenodd"><path d="M0 0 L-5.64 5.64 L-5.63 11.3 L2.83 2.83 L0 0" stroke="none" stroke-width="0" fill="#aecbfa" fill-rule="evenodd"></path><path d="M0 0 C-1.17 1.17, -2.35 2.35, -5.64 5.64 M0 0 C-1.64 1.64, -3.28 3.28, -5.64 5.64 M-5.64 5.64 C-5.63 7.84, -5.63 10.03, -5.63 11.3 M-5.64 5.64 C-5.64 7.46, -5.63 9.29, -5.63 11.3 M-5.63 11.3 C-3.11 8.78, -0.59 6.26, 2.83 2.83 M-5.63 11.3 C-3.41 9.08, -1.19 6.86, 2.83 2.83 M2.83 2.83 C1.91 1.9, 0.98 0.98, 0 0 M2.83 2.83 C2.16 2.16, 1.49 1.49, 0 0 M0 0 C0 0, 0 0, 0 0 M0 0 C0 0, 0 0, 0 0" stroke="#00000000" stroke-width="1" fill="none"></path></g></g><g stroke-linecap="round"><g transform="translate(456.5937213897705 300.9280252456665) rotate(0 -2.119448661804199 5.035222053527832)" fill-rule="evenodd"><path d="M0 0 L-4.24 -3.45 L-4.24 13.52 L0 10.09 L0 0" stroke="none" stroke-width="0" fill="#669df6" fill-rule="evenodd"></path><path d="M0 0 C-1.48 -1.2, -2.96 -2.41, -4.24 -3.45 M0 0 C-0.87 -0.71, -1.74 -1.41, -4.24 -3.45 M-4.24 -3.45 C-4.24 0.52, -4.24 4.5, -4.24 13.52 M-4.24 -3.45 C-4.24 0.46, -4.24 4.38, -4.24 13.52 M-4.24 13.52 C-3.23 12.7, -2.22 11.89, 0 10.09 M-4.24 13.52 C-3.38 12.82, -2.51 12.13, 0 10.09 M0 10.09 C0 7.16, 0 4.23, 0 0 M0 10.09 C0 7.53, 0 4.97, 0 0 M0 0 C0 0, 0 0, 0 0 M0 0 C0 0, 0 0, 0 0" stroke="#00000000" stroke-width="1" fill="none"></path></g></g><g stroke-linecap="round"><g transform="translate(456.5937213897705 308.78836250305176) rotate(0 -2.119448661804199 2.830015182495117)" fill-rule="evenodd"><path d="M0 0 L-4.24 2.83 L-4.24 5.66 L0 0" stroke="none" stroke-width="0" fill="#4285f4" fill-rule="evenodd"></path><path d="M0 0 C-1.04 0.69, -2.07 1.38, -4.24 2.83 M0 0 C-1.34 0.89, -2.68 1.79, -4.24 2.83 M-4.24 2.83 C-4.24 3.42, -4.24 4.01, -4.24 5.66 M-4.24 2.83 C-4.24 3.45, -4.24 4.07, -4.24 5.66 M-4.24 5.66 C-2.85 3.8, -1.46 1.95, 0 0 M-4.24 5.66 C-3.28 4.38, -2.33 3.11, 0 0 M0 0 C0 0, 0 0, 0 0 M0 0 C0 0, 0 0, 0 0" stroke="#00000000" stroke-width="1" fill="none"></path></g></g><g stroke-linecap="round"><g transform="translate(452.3548240661621 297.4781017303467) rotate(0 2.119448661804199 2.8275651931762695)" fill-rule="evenodd"><path d="M0 0 L0 2.83 L4.24 5.66 L0 0" stroke="none" stroke-width="0" fill="#4285f4" fill-rule="evenodd"></path><path d="M0 0 C0 1.07, 0 2.14, 0 2.83 M0 0 C0 0.62, 0 1.23, 0 2.83 M0 2.83 C1.5 3.83, 2.99 4.82, 4.24 5.66 M0 2.83 C1.19 3.62, 2.39 4.42, 4.24 5.66 M4.24 5.66 C3.03 4.04, 1.81 2.42, 0 0 M4.24 5.66 C3.13 4.18, 2.03 2.71, 0 0 M0 0 C0 0, 0 0, 0 0 M0 0 C0 0, 0 0, 0 0" stroke="#00000000" stroke-width="1" fill="none"></path></g></g><g stroke-linecap="round"><g transform="translate(448.111026763916 294.65053606033325) rotate(0 4.241347312927246 2.8275654911994934)" fill-rule="evenodd"><path d="M0 0 L8.48 8.48 L8.48 2.83 L2.83 -2.83 L0 0" stroke="none" stroke-width="0" fill="#aecbfa" fill-rule="evenodd"></path><path d="M0 0 C2.49 2.49, 4.98 4.98, 8.48 8.48 M0 0 C2.15 2.15, 4.29 4.29, 8.48 8.48 M8.48 8.48 C8.48 7.18, 8.48 5.88, 8.48 2.83 M8.48 8.48 C8.48 6.76, 8.48 5.04, 8.48 2.83 M8.48 2.83 C6.59 0.93, 4.69 -0.96, 2.83 -2.83 M8.48 2.83 C6.52 0.86, 4.55 -1.1, 2.83 -2.83 M2.83 -2.83 C2.24 -2.24, 1.65 -1.65, 0 0 M2.83 -2.83 C2.06 -2.06, 1.3 -1.3, 0 0 M0 0 C0 0, 0 0, 0 0 M0 0 C0 0, 0 0, 0 0" stroke="#00000000" stroke-width="1" fill="none"></path></g></g><g stroke-linecap="round"><g transform="translate(450.9532928466797 320.0888214111328) rotate(0 1.4064311981201172 -5.650229454040527)" fill-rule="evenodd"><path d="M0 0 L5.64 -5.64 L5.63 -11.3 L-2.83 -2.83 L0 0" stroke="none" stroke-width="0" fill="#aecbfa" fill-rule="evenodd"></path><path d="M0 0 C2.1 -2.1, 4.2 -4.2, 5.64 -5.64 M0 0 C1.74 -1.74, 3.48 -3.48, 5.64 -5.64 M5.64 -5.64 C5.64 -7.7, 5.63 -9.77, 5.63 -11.3 M5.64 -5.64 C5.63 -7.9, 5.63 -10.16, 5.63 -11.3 M5.63 -11.3 C2.73 -8.39, -0.17 -5.49, -2.83 -2.83 M5.63 -11.3 C3.7 -9.37, 1.77 -7.43, -2.83 -2.83 M-2.83 -2.83 C-1.99 -1.99, -1.16 -1.16, 0 0 M-2.83 -2.83 C-2.13 -2.13, -1.44 -1.44, 0 0 M0 0 C0 0, 0 0, 0 0 M0 0 C0 0, 0 0, 0 0" stroke="#00000000" stroke-width="1" fill="none"></path></g></g><g stroke-linecap="round" transform="translate(435.3796329498291 304.52986240386963) rotate(0 1.4162328243255615 1.4162328243255615)"><path d="M2.83 1.42 C2.83 1.5, 2.83 1.58, 2.81 1.66 C2.8 1.74, 2.78 1.82, 2.75 1.9 C2.72 1.98, 2.68 2.05, 2.64 2.12 C2.6 2.2, 2.55 2.26, 2.5 2.33 C2.45 2.39, 2.39 2.45, 2.33 2.5 C2.26 2.55, 2.2 2.6, 2.12 2.64 C2.05 2.68, 1.98 2.72, 1.9 2.75 C1.82 2.78, 1.74 2.8, 1.66 2.81 C1.58 2.83, 1.5 2.83, 1.42 2.83 C1.33 2.83, 1.25 2.83, 1.17 2.81 C1.09 2.8, 1.01 2.78, 0.93 2.75 C0.85 2.72, 0.78 2.68, 0.71 2.64 C0.64 2.6, 0.57 2.55, 0.51 2.5 C0.44 2.45, 0.38 2.39, 0.33 2.33 C0.28 2.26, 0.23 2.2, 0.19 2.12 C0.15 2.05, 0.11 1.98, 0.09 1.9 C0.06 1.82, 0.04 1.74, 0.02 1.66 C0.01 1.58, 0 1.5, 0 1.42 C0 1.33, 0.01 1.25, 0.02 1.17 C0.04 1.09, 0.06 1.01, 0.09 0.93 C0.11 0.85, 0.15 0.78, 0.19 0.71 C0.23 0.64, 0.28 0.57, 0.33 0.51 C0.38 0.44, 0.44 0.38, 0.51 0.33 C0.57 0.28, 0.64 0.23, 0.71 0.19 C0.78 0.15, 0.85 0.11, 0.93 0.09 C1.01 0.06, 1.09 0.04, 1.17 0.02 C1.25 0.01, 1.33 0, 1.42 0 C1.5 0, 1.58 0.01, 1.66 0.02 C1.74 0.04, 1.82 0.06, 1.9 0.09 C1.98 0.11, 2.05 0.15, 2.12 0.19 C2.2 0.23, 2.26 0.28, 2.33 0.33 C2.39 0.38, 2.45 0.44, 2.5 0.51 C2.55 0.57, 2.6 0.64, 2.64 0.71 C2.68 0.78, 2.72 0.85, 2.75 0.93 C2.78 1.01, 2.8 1.09, 2.81 1.17 C2.83 1.25, 2.83 1.38, 2.83 1.42 C2.84 1.46, 2.84 1.38, 2.83 1.42" stroke="none" stroke-width="0" fill="#aecbfa"></path><path d="M2.83 1.42 C2.83 1.5, 2.83 1.58, 2.81 1.66 C2.8 1.74, 2.78 1.82, 2.75 1.9 C2.72 1.98, 2.68 2.05, 2.64 2.12 C2.6 2.2, 2.55 2.26, 2.5 2.33 C2.45 2.39, 2.39 2.45, 2.33 2.5 C2.26 2.55, 2.2 2.6, 2.12 2.64 C2.05 2.68, 1.98 2.72, 1.9 2.75 C1.82 2.78, 1.74 2.8, 1.66 2.81 C1.58 2.83, 1.5 2.83, 1.42 2.83 C1.33 2.83, 1.25 2.83, 1.17 2.81 C1.09 2.8, 1.01 2.78, 0.93 2.75 C0.85 2.72, 0.78 2.68, 0.71 2.64 C0.64 2.6, 0.57 2.55, 0.51 2.5 C0.44 2.45, 0.38 2.39, 0.33 2.33 C0.28 2.26, 0.23 2.2, 0.19 2.12 C0.15 2.05, 0.11 1.98, 0.09 1.9 C0.06 1.82, 0.04 1.74, 0.02 1.66 C0.01 1.58, 0 1.5, 0 1.42 C0 1.33, 0.01 1.25, 0.02 1.17 C0.04 1.09, 0.06 1.01, 0.09 0.93 C0.11 0.85, 0.15 0.78, 0.19 0.71 C0.23 0.64, 0.28 0.57, 0.33 0.51 C0.38 0.44, 0.44 0.38, 0.51 0.33 C0.57 0.28, 0.64 0.23, 0.71 0.19 C0.78 0.15, 0.85 0.11, 0.93 0.09 C1.01 0.06, 1.09 0.04, 1.17 0.02 C1.25 0.01, 1.33 0, 1.42 0 C1.5 0, 1.58 0.01, 1.66 0.02 C1.74 0.04, 1.82 0.06, 1.9 0.09 C1.98 0.11, 2.05 0.15, 2.12 0.19 C2.2 0.23, 2.26 0.28, 2.33 0.33 C2.39 0.38, 2.45 0.44, 2.5 0.51 C2.55 0.57, 2.6 0.64, 2.64 0.71 C2.68 0.78, 2.72 0.85, 2.75 0.93 C2.78 1.01, 2.8 1.09, 2.81 1.17 C2.83 1.25, 2.83 1.38, 2.83 1.42 C2.84 1.46, 2.84 1.38, 2.83 1.42" stroke="transparent" stroke-width="1" fill="none"></path></g><g stroke-linecap="round" transform="translate(441.03966426849365 304.52986240386963) rotate(0 1.4162328243255615 1.4162328243255615)"><path d="M2.83 1.42 C2.83 1.5, 2.83 1.58, 2.81 1.66 C2.8 1.74, 2.78 1.82, 2.75 1.9 C2.72 1.98, 2.68 2.05, 2.64 2.12 C2.6 2.2, 2.55 2.26, 2.5 2.33 C2.45 2.39, 2.39 2.45, 2.33 2.5 C2.26 2.55, 2.2 2.6, 2.12 2.64 C2.05 2.68, 1.98 2.72, 1.9 2.75 C1.82 2.78, 1.74 2.8, 1.66 2.81 C1.58 2.83, 1.5 2.83, 1.42 2.83 C1.33 2.83, 1.25 2.83, 1.17 2.81 C1.09 2.8, 1.01 2.78, 0.93 2.75 C0.85 2.72, 0.78 2.68, 0.71 2.64 C0.64 2.6, 0.57 2.55, 0.51 2.5 C0.44 2.45, 0.38 2.39, 0.33 2.33 C0.28 2.26, 0.23 2.2, 0.19 2.12 C0.15 2.05, 0.11 1.98, 0.09 1.9 C0.06 1.82, 0.04 1.74, 0.02 1.66 C0.01 1.58, 0 1.5, 0 1.42 C0 1.33, 0.01 1.25, 0.02 1.17 C0.04 1.09, 0.06 1.01, 0.09 0.93 C0.11 0.85, 0.15 0.78, 0.19 0.71 C0.23 0.64, 0.28 0.57, 0.33 0.51 C0.38 0.44, 0.44 0.38, 0.51 0.33 C0.57 0.28, 0.64 0.23, 0.71 0.19 C0.78 0.15, 0.85 0.11, 0.93 0.09 C1.01 0.06, 1.09 0.04, 1.17 0.02 C1.25 0.01, 1.33 0, 1.42 0 C1.5 0, 1.58 0.01, 1.66 0.02 C1.74 0.04, 1.82 0.06, 1.9 0.09 C1.98 0.11, 2.05 0.15, 2.12 0.19 C2.2 0.23, 2.26 0.28, 2.33 0.33 C2.39 0.38, 2.45 0.44, 2.5 0.51 C2.55 0.57, 2.6 0.64, 2.64 0.71 C2.68 0.78, 2.72 0.85, 2.75 0.93 C2.78 1.01, 2.8 1.09, 2.81 1.17 C2.83 1.25, 2.83 1.38, 2.83 1.42 C2.84 1.46, 2.84 1.38, 2.83 1.42" stroke="none" stroke-width="0" fill="#aecbfa"></path><path d="M2.83 1.42 C2.83 1.5, 2.83 1.58, 2.81 1.66 C2.8 1.74, 2.78 1.82, 2.75 1.9 C2.72 1.98, 2.68 2.05, 2.64 2.12 C2.6 2.2, 2.55 2.26, 2.5 2.33 C2.45 2.39, 2.39 2.45, 2.33 2.5 C2.26 2.55, 2.2 2.6, 2.12 2.64 C2.05 2.68, 1.98 2.72, 1.9 2.75 C1.82 2.78, 1.74 2.8, 1.66 2.81 C1.58 2.83, 1.5 2.83, 1.42 2.83 C1.33 2.83, 1.25 2.83, 1.17 2.81 C1.09 2.8, 1.01 2.78, 0.93 2.75 C0.85 2.72, 0.78 2.68, 0.71 2.64 C0.64 2.6, 0.57 2.55, 0.51 2.5 C0.44 2.45, 0.38 2.39, 0.33 2.33 C0.28 2.26, 0.23 2.2, 0.19 2.12 C0.15 2.05, 0.11 1.98, 0.09 1.9 C0.06 1.82, 0.04 1.74, 0.02 1.66 C0.01 1.58, 0 1.5, 0 1.42 C0 1.33, 0.01 1.25, 0.02 1.17 C0.04 1.09, 0.06 1.01, 0.09 0.93 C0.11 0.85, 0.15 0.78, 0.19 0.71 C0.23 0.64, 0.28 0.57, 0.33 0.51 C0.38 0.44, 0.44 0.38, 0.51 0.33 C0.57 0.28, 0.64 0.23, 0.71 0.19 C0.78 0.15, 0.85 0.11, 0.93 0.09 C1.01 0.06, 1.09 0.04, 1.17 0.02 C1.25 0.01, 1.33 0, 1.42 0 C1.5 0, 1.58 0.01, 1.66 0.02 C1.74 0.04, 1.82 0.06, 1.9 0.09 C1.98 0.11, 2.05 0.15, 2.12 0.19 C2.2 0.23, 2.26 0.28, 2.33 0.33 C2.39 0.38, 2.45 0.44, 2.5 0.51 C2.55 0.57, 2.6 0.64, 2.64 0.71 C2.68 0.78, 2.72 0.85, 2.75 0.93 C2.78 1.01, 2.8 1.09, 2.81 1.17 C2.83 1.25, 2.83 1.38, 2.83 1.42 C2.84 1.46, 2.84 1.38, 2.83 1.42" stroke="transparent" stroke-width="1" fill="none"></path></g><g stroke-linecap="round" transform="translate(446.68009185791016 304.52986240386963) rotate(0 1.4162328243255615 1.4162328243255615)"><path d="M2.83 1.42 C2.83 1.5, 2.83 1.58, 2.81 1.66 C2.8 1.74, 2.78 1.82, 2.75 1.9 C2.72 1.98, 2.68 2.05, 2.64 2.12 C2.6 2.2, 2.55 2.26, 2.5 2.33 C2.45 2.39, 2.39 2.45, 2.33 2.5 C2.26 2.55, 2.2 2.6, 2.12 2.64 C2.05 2.68, 1.98 2.72, 1.9 2.75 C1.82 2.78, 1.74 2.8, 1.66 2.81 C1.58 2.83, 1.5 2.83, 1.42 2.83 C1.33 2.83, 1.25 2.83, 1.17 2.81 C1.09 2.8, 1.01 2.78, 0.93 2.75 C0.85 2.72, 0.78 2.68, 0.71 2.64 C0.64 2.6, 0.57 2.55, 0.51 2.5 C0.44 2.45, 0.38 2.39, 0.33 2.33 C0.28 2.26, 0.23 2.2, 0.19 2.12 C0.15 2.05, 0.11 1.98, 0.09 1.9 C0.06 1.82, 0.04 1.74, 0.02 1.66 C0.01 1.58, 0 1.5, 0 1.42 C0 1.33, 0.01 1.25, 0.02 1.17 C0.04 1.09, 0.06 1.01, 0.09 0.93 C0.11 0.85, 0.15 0.78, 0.19 0.71 C0.23 0.64, 0.28 0.57, 0.33 0.51 C0.38 0.44, 0.44 0.38, 0.51 0.33 C0.57 0.28, 0.64 0.23, 0.71 0.19 C0.78 0.15, 0.85 0.11, 0.93 0.09 C1.01 0.06, 1.09 0.04, 1.17 0.02 C1.25 0.01, 1.33 0, 1.42 0 C1.5 0, 1.58 0.01, 1.66 0.02 C1.74 0.04, 1.82 0.06, 1.9 0.09 C1.98 0.11, 2.05 0.15, 2.12 0.19 C2.2 0.23, 2.26 0.28, 2.33 0.33 C2.39 0.38, 2.45 0.44, 2.5 0.51 C2.55 0.57, 2.6 0.64, 2.64 0.71 C2.68 0.78, 2.72 0.85, 2.75 0.93 C2.78 1.01, 2.8 1.09, 2.81 1.17 C2.83 1.25, 2.83 1.38, 2.83 1.42 C2.84 1.46, 2.84 1.38, 2.83 1.42" stroke="none" stroke-width="0" fill="#aecbfa"></path><path d="M2.83 1.42 C2.83 1.5, 2.83 1.58, 2.81 1.66 C2.8 1.74, 2.78 1.82, 2.75 1.9 C2.72 1.98, 2.68 2.05, 2.64 2.12 C2.6 2.2, 2.55 2.26, 2.5 2.33 C2.45 2.39, 2.39 2.45, 2.33 2.5 C2.26 2.55, 2.2 2.6, 2.12 2.64 C2.05 2.68, 1.98 2.72, 1.9 2.75 C1.82 2.78, 1.74 2.8, 1.66 2.81 C1.58 2.83, 1.5 2.83, 1.42 2.83 C1.33 2.83, 1.25 2.83, 1.17 2.81 C1.09 2.8, 1.01 2.78, 0.93 2.75 C0.85 2.72, 0.78 2.68, 0.71 2.64 C0.64 2.6, 0.57 2.55, 0.51 2.5 C0.44 2.45, 0.38 2.39, 0.33 2.33 C0.28 2.26, 0.23 2.2, 0.19 2.12 C0.15 2.05, 0.11 1.98, 0.09 1.9 C0.06 1.82, 0.04 1.74, 0.02 1.66 C0.01 1.58, 0 1.5, 0 1.42 C0 1.33, 0.01 1.25, 0.02 1.17 C0.04 1.09, 0.06 1.01, 0.09 0.93 C0.11 0.85, 0.15 0.78, 0.19 0.71 C0.23 0.64, 0.28 0.57, 0.33 0.51 C0.38 0.44, 0.44 0.38, 0.51 0.33 C0.57 0.28, 0.64 0.23, 0.71 0.19 C0.78 0.15, 0.85 0.11, 0.93 0.09 C1.01 0.06, 1.09 0.04, 1.17 0.02 C1.25 0.01, 1.33 0, 1.42 0 C1.5 0, 1.58 0.01, 1.66 0.02 C1.74 0.04, 1.82 0.06, 1.9 0.09 C1.98 0.11, 2.05 0.15, 2.12 0.19 C2.2 0.23, 2.26 0.28, 2.33 0.33 C2.39 0.38, 2.45 0.44, 2.5 0.51 C2.55 0.57, 2.6 0.64, 2.64 0.71 C2.68 0.78, 2.72 0.85, 2.75 0.93 C2.78 1.01, 2.8 1.09, 2.81 1.17 C2.83 1.25, 2.83 1.38, 2.83 1.42 C2.84 1.46, 2.84 1.38, 2.83 1.42" stroke="transparent" stroke-width="1" fill="none"></path></g><g stroke-linecap="round" transform="translate(410 430) rotate(0 80 36)"><path d="M18 0 L142 0 L149.88 1.13 L155.5 4.5 L157.47 7.03 L159.72 13.78 L160 54 L158.88 61.88 L157.47 64.97 L152.97 69.47 L149.88 70.88 L142 72 L18 72 L10.13 70.88 L4.5 67.5 L2.53 64.97 L0.28 58.22 L0.28 13.78 L1.13 10.13 L4.5 4.5 L10.13 1.13 L18 0" stroke="none" stroke-width="0" fill="#FFF"></path><path d="M18 0 M18 0 C43.25 0, 68.51 0, 142 0 M18 0 C60.29 0, 102.59 0, 142 0 M142 0 C154 0, 160 6, 160 18 M142 0 C154 0, 160 6, 160 18 M160 18 C160 27.13, 160 36.27, 160 54 M160 18 C160 28.49, 160 38.98, 160 54 M160 54 C160 66, 154 72, 142 72 M160 54 C160 66, 154 72, 142 72 M142 72 C99.65 72, 57.29 72, 18 72 M142 72 C103.27 72, 64.53 72, 18 72 M18 72 C6 72, 0 66, 0 54 M18 72 C6 72, 0 66, 0 54 M0 54 C0 39.83, 0 25.66, 0 18 M0 54 C0 42.29, 0 30.59, 0 18 M0 18 C0 6, 6 0, 18 0 M0 18 C0 6, 6 0, 18 0" stroke="#4285f4" stroke-width="2" fill="none"></path></g><g transform="translate(475 459) rotate(0 42.5 7)"><text x="0" y="13" font-family="Helvetica, Segoe UI Emoji" font-size="12px" fill="#000000" text-anchor="start" style="white-space: pre;" direction="ltr">Pub/Sub</text></g><g stroke-linecap="round" transform="translate(449.5 458.65333366394043) rotate(0 2.2933335304260254 2.2933335304260254)"><path d="M4.59 2.29 C4.59 2.43, 4.57 2.56, 4.55 2.69 C4.53 2.82, 4.49 2.95, 4.45 3.08 C4.4 3.2, 4.35 3.33, 4.28 3.44 C4.21 3.55, 4.14 3.67, 4.05 3.77 C3.96 3.87, 3.87 3.96, 3.77 4.05 C3.67 4.14, 3.55 4.21, 3.44 4.28 C3.33 4.35, 3.2 4.4, 3.08 4.45 C2.95 4.49, 2.82 4.53, 2.69 4.55 C2.56 4.57, 2.43 4.59, 2.29 4.59 C2.16 4.59, 2.03 4.57, 1.9 4.55 C1.76 4.53, 1.63 4.49, 1.51 4.45 C1.38 4.4, 1.26 4.35, 1.15 4.28 C1.03 4.21, 0.92 4.14, 0.82 4.05 C0.72 3.96, 0.62 3.87, 0.54 3.77 C0.45 3.67, 0.37 3.55, 0.31 3.44 C0.24 3.33, 0.18 3.2, 0.14 3.08 C0.09 2.95, 0.06 2.82, 0.03 2.69 C0.01 2.56, 0 2.43, 0 2.29 C0 2.16, 0.01 2.03, 0.03 1.9 C0.06 1.76, 0.09 1.63, 0.14 1.51 C0.18 1.38, 0.24 1.26, 0.31 1.15 C0.37 1.03, 0.45 0.92, 0.54 0.82 C0.62 0.72, 0.72 0.62, 0.82 0.54 C0.92 0.45, 1.03 0.37, 1.15 0.31 C1.26 0.24, 1.38 0.18, 1.51 0.14 C1.63 0.09, 1.76 0.06, 1.9 0.03 C2.03 0.01, 2.16 0, 2.29 0 C2.43 0, 2.56 0.01, 2.69 0.03 C2.82 0.06, 2.95 0.09, 3.08 0.14 C3.2 0.18, 3.33 0.24, 3.44 0.31 C3.55 0.37, 3.67 0.45, 3.77 0.54 C3.87 0.62, 3.96 0.72, 4.05 0.82 C4.14 0.92, 4.21 1.03, 4.28 1.15 C4.35 1.26, 4.4 1.38, 4.45 1.51 C4.49 1.63, 4.53 1.76, 4.55 1.9 C4.57 2.03, 4.58 2.23, 4.59 2.29 C4.59 2.36, 4.59 2.23, 4.59 2.29" stroke="none" stroke-width="0" fill="#669df6"></path><path d="M4.59 2.29 C4.59 2.43, 4.57 2.56, 4.55 2.69 C4.53 2.82, 4.49 2.95, 4.45 3.08 C4.4 3.2, 4.35 3.33, 4.28 3.44 C4.21 3.55, 4.14 3.67, 4.05 3.77 C3.96 3.87, 3.87 3.96, 3.77 4.05 C3.67 4.14, 3.55 4.21, 3.44 4.28 C3.33 4.35, 3.2 4.4, 3.08 4.45 C2.95 4.49, 2.82 4.53, 2.69 4.55 C2.56 4.57, 2.43 4.59, 2.29 4.59 C2.16 4.59, 2.03 4.57, 1.9 4.55 C1.76 4.53, 1.63 4.49, 1.51 4.45 C1.38 4.4, 1.26 4.35, 1.15 4.28 C1.03 4.21, 0.92 4.14, 0.82 4.05 C0.72 3.96, 0.62 3.87, 0.54 3.77 C0.45 3.67, 0.37 3.55, 0.31 3.44 C0.24 3.33, 0.18 3.2, 0.14 3.08 C0.09 2.95, 0.06 2.82, 0.03 2.69 C0.01 2.56, 0 2.43, 0 2.29 C0 2.16, 0.01 2.03, 0.03 1.9 C0.06 1.76, 0.09 1.63, 0.14 1.51 C0.18 1.38, 0.24 1.26, 0.31 1.15 C0.37 1.03, 0.45 0.92, 0.54 0.82 C0.62 0.72, 0.72 0.62, 0.82 0.54 C0.92 0.45, 1.03 0.37, 1.15 0.31 C1.26 0.24, 1.38 0.18, 1.51 0.14 C1.63 0.09, 1.76 0.06, 1.9 0.03 C2.03 0.01, 2.16 0, 2.29 0 C2.43 0, 2.56 0.01, 2.69 0.03 C2.82 0.06, 2.95 0.09, 3.08 0.14 C3.2 0.18, 3.33 0.24, 3.44 0.31 C3.55 0.37, 3.67 0.45, 3.77 0.54 C3.87 0.62, 3.96 0.72, 4.05 0.82 C4.14 0.92, 4.21 1.03, 4.28 1.15 C4.35 1.26, 4.4 1.38, 4.45 1.51 C4.49 1.63, 4.53 1.76, 4.55 1.9 C4.57 2.03, 4.58 2.23, 4.59 2.29 C4.59 2.36, 4.59 2.23, 4.59 2.29" stroke="transparent" stroke-width="1" fill="none"></path></g><g stroke-linecap="round" transform="translate(430.9133334159851 458.65333366394043) rotate(0 2.2933335304260254 2.2933335304260254)"><path d="M4.59 2.29 C4.59 2.43, 4.57 2.56, 4.55 2.69 C4.53 2.82, 4.49 2.95, 4.45 3.08 C4.4 3.2, 4.35 3.33, 4.28 3.44 C4.21 3.55, 4.14 3.67, 4.05 3.77 C3.96 3.87, 3.87 3.96, 3.77 4.05 C3.67 4.14, 3.55 4.21, 3.44 4.28 C3.33 4.35, 3.2 4.4, 3.08 4.45 C2.95 4.49, 2.82 4.53, 2.69 4.55 C2.56 4.57, 2.43 4.59, 2.29 4.59 C2.16 4.59, 2.03 4.57, 1.9 4.55 C1.76 4.53, 1.63 4.49, 1.51 4.45 C1.38 4.4, 1.26 4.35, 1.15 4.28 C1.03 4.21, 0.92 4.14, 0.82 4.05 C0.72 3.96, 0.62 3.87, 0.54 3.77 C0.45 3.67, 0.37 3.55, 0.31 3.44 C0.24 3.33, 0.18 3.2, 0.14 3.08 C0.09 2.95, 0.06 2.82, 0.03 2.69 C0.01 2.56, 0 2.43, 0 2.29 C0 2.16, 0.01 2.03, 0.03 1.9 C0.06 1.76, 0.09 1.63, 0.14 1.51 C0.18 1.38, 0.24 1.26, 0.31 1.15 C0.37 1.03, 0.45 0.92, 0.54 0.82 C0.62 0.72, 0.72 0.62, 0.82 0.54 C0.92 0.45, 1.03 0.37, 1.15 0.31 C1.26 0.24, 1.38 0.18, 1.51 0.14 C1.63 0.09, 1.76 0.06, 1.9 0.03 C2.03 0.01, 2.16 0, 2.29 0 C2.43 0, 2.56 0.01, 2.69 0.03 C2.82 0.06, 2.95 0.09, 3.08 0.14 C3.2 0.18, 3.33 0.24, 3.44 0.31 C3.55 0.37, 3.67 0.45, 3.77 0.54 C3.87 0.62, 3.96 0.72, 4.05 0.82 C4.14 0.92, 4.21 1.03, 4.28 1.15 C4.35 1.26, 4.4 1.38, 4.45 1.51 C4.49 1.63, 4.53 1.76, 4.55 1.9 C4.57 2.03, 4.58 2.23, 4.59 2.29 C4.59 2.36, 4.59 2.23, 4.59 2.29" stroke="none" stroke-width="0" fill="#669df6"></path><path d="M4.59 2.29 C4.59 2.43, 4.57 2.56, 4.55 2.69 C4.53 2.82, 4.49 2.95, 4.45 3.08 C4.4 3.2, 4.35 3.33, 4.28 3.44 C4.21 3.55, 4.14 3.67, 4.05 3.77 C3.96 3.87, 3.87 3.96, 3.77 4.05 C3.67 4.14, 3.55 4.21, 3.44 4.28 C3.33 4.35, 3.2 4.4, 3.08 4.45 C2.95 4.49, 2.82 4.53, 2.69 4.55 C2.56 4.57, 2.43 4.59, 2.29 4.59 C2.16 4.59, 2.03 4.57, 1.9 4.55 C1.76 4.53, 1.63 4.49, 1.51 4.45 C1.38 4.4, 1.26 4.35, 1.15 4.28 C1.03 4.21, 0.92 4.14, 0.82 4.05 C0.72 3.96, 0.62 3.87, 0.54 3.77 C0.45 3.67, 0.37 3.55, 0.31 3.44 C0.24 3.33, 0.18 3.2, 0.14 3.08 C0.09 2.95, 0.06 2.82, 0.03 2.69 C0.01 2.56, 0 2.43, 0 2.29 C0 2.16, 0.01 2.03, 0.03 1.9 C0.06 1.76, 0.09 1.63, 0.14 1.51 C0.18 1.38, 0.24 1.26, 0.31 1.15 C0.37 1.03, 0.45 0.92, 0.54 0.82 C0.62 0.72, 0.72 0.62, 0.82 0.54 C0.92 0.45, 1.03 0.37, 1.15 0.31 C1.26 0.24, 1.38 0.18, 1.51 0.14 C1.63 0.09, 1.76 0.06, 1.9 0.03 C2.03 0.01, 2.16 0, 2.29 0 C2.43 0, 2.56 0.01, 2.69 0.03 C2.82 0.06, 2.95 0.09, 3.08 0.14 C3.2 0.18, 3.33 0.24, 3.44 0.31 C3.55 0.37, 3.67 0.45, 3.77 0.54 C3.87 0.62, 3.96 0.72, 4.05 0.82 C4.14 0.92, 4.21 1.03, 4.28 1.15 C4.35 1.26, 4.4 1.38, 4.45 1.51 C4.49 1.63, 4.53 1.76, 4.55 1.9 C4.57 2.03, 4.58 2.23, 4.59 2.29 C4.59 2.36, 4.59 2.23, 4.59 2.29" stroke="transparent" stroke-width="1" fill="none"></path></g><g stroke-linecap="round" transform="translate(440.20666694641113 474.74666595458984) rotate(0 2.2933335304260254 2.2933335304260254)"><path d="M4.59 2.29 C4.59 2.43, 4.57 2.56, 4.55 2.69 C4.53 2.82, 4.49 2.95, 4.45 3.08 C4.4 3.2, 4.35 3.33, 4.28 3.44 C4.21 3.55, 4.14 3.67, 4.05 3.77 C3.96 3.87, 3.87 3.96, 3.77 4.05 C3.67 4.14, 3.55 4.21, 3.44 4.28 C3.33 4.35, 3.2 4.4, 3.08 4.45 C2.95 4.49, 2.82 4.53, 2.69 4.55 C2.56 4.57, 2.43 4.59, 2.29 4.59 C2.16 4.59, 2.03 4.57, 1.9 4.55 C1.76 4.53, 1.63 4.49, 1.51 4.45 C1.38 4.4, 1.26 4.35, 1.15 4.28 C1.03 4.21, 0.92 4.14, 0.82 4.05 C0.72 3.96, 0.62 3.87, 0.54 3.77 C0.45 3.67, 0.37 3.55, 0.31 3.44 C0.24 3.33, 0.18 3.2, 0.14 3.08 C0.09 2.95, 0.06 2.82, 0.03 2.69 C0.01 2.56, 0 2.43, 0 2.29 C0 2.16, 0.01 2.03, 0.03 1.9 C0.06 1.76, 0.09 1.63, 0.14 1.51 C0.18 1.38, 0.24 1.26, 0.31 1.15 C0.37 1.03, 0.45 0.92, 0.54 0.82 C0.62 0.72, 0.72 0.62, 0.82 0.54 C0.92 0.45, 1.03 0.37, 1.15 0.31 C1.26 0.24, 1.38 0.18, 1.51 0.14 C1.63 0.09, 1.76 0.06, 1.9 0.03 C2.03 0.01, 2.16 0, 2.29 0 C2.43 0, 2.56 0.01, 2.69 0.03 C2.82 0.06, 2.95 0.09, 3.08 0.14 C3.2 0.18, 3.33 0.24, 3.44 0.31 C3.55 0.37, 3.67 0.45, 3.77 0.54 C3.87 0.62, 3.96 0.72, 4.05 0.82 C4.14 0.92, 4.21 1.03, 4.28 1.15 C4.35 1.26, 4.4 1.38, 4.45 1.51 C4.49 1.63, 4.53 1.76, 4.55 1.9 C4.57 2.03, 4.58 2.23, 4.59 2.29 C4.59 2.36, 4.59 2.23, 4.59 2.29" stroke="none" stroke-width="0" fill="#669df6"></path><path d="M4.59 2.29 C4.59 2.43, 4.57 2.56, 4.55 2.69 C4.53 2.82, 4.49 2.95, 4.45 3.08 C4.4 3.2, 4.35 3.33, 4.28 3.44 C4.21 3.55, 4.14 3.67, 4.05 3.77 C3.96 3.87, 3.87 3.96, 3.77 4.05 C3.67 4.14, 3.55 4.21, 3.44 4.28 C3.33 4.35, 3.2 4.4, 3.08 4.45 C2.95 4.49, 2.82 4.53, 2.69 4.55 C2.56 4.57, 2.43 4.59, 2.29 4.59 C2.16 4.59, 2.03 4.57, 1.9 4.55 C1.76 4.53, 1.63 4.49, 1.51 4.45 C1.38 4.4, 1.26 4.35, 1.15 4.28 C1.03 4.21, 0.92 4.14, 0.82 4.05 C0.72 3.96, 0.62 3.87, 0.54 3.77 C0.45 3.67, 0.37 3.55, 0.31 3.44 C0.24 3.33, 0.18 3.2, 0.14 3.08 C0.09 2.95, 0.06 2.82, 0.03 2.69 C0.01 2.56, 0 2.43, 0 2.29 C0 2.16, 0.01 2.03, 0.03 1.9 C0.06 1.76, 0.09 1.63, 0.14 1.51 C0.18 1.38, 0.24 1.26, 0.31 1.15 C0.37 1.03, 0.45 0.92, 0.54 0.82 C0.62 0.72, 0.72 0.62, 0.82 0.54 C0.92 0.45, 1.03 0.37, 1.15 0.31 C1.26 0.24, 1.38 0.18, 1.51 0.14 C1.63 0.09, 1.76 0.06, 1.9 0.03 C2.03 0.01, 2.16 0, 2.29 0 C2.43 0, 2.56 0.01, 2.69 0.03 C2.82 0.06, 2.95 0.09, 3.08 0.14 C3.2 0.18, 3.33 0.24, 3.44 0.31 C3.55 0.37, 3.67 0.45, 3.77 0.54 C3.87 0.62, 3.96 0.72, 4.05 0.82 C4.14 0.92, 4.21 1.03, 4.28 1.15 C4.35 1.26, 4.4 1.38, 4.45 1.51 C4.49 1.63, 4.53 1.76, 4.55 1.9 C4.57 2.03, 4.58 2.23, 4.59 2.29 C4.59 2.36, 4.59 2.23, 4.59 2.29" stroke="transparent" stroke-width="1" fill="none"></path></g><g stroke-linecap="round"><g transform="translate(442.0279998779297 467.14666748046875) rotate(0 5.193334579467773 1.7573323249816895)" fill-rule="evenodd"><path d="M0 0 L1.06 -1.85 L10.39 3.51 L9.33 5.36 L0 0" stroke="none" stroke-width="0" fill="#4285f4" fill-rule="evenodd"></path><path d="M0 0 C0.39 -0.67, 0.77 -1.35, 1.06 -1.85 M0 0 C0.24 -0.41, 0.47 -0.83, 1.06 -1.85 M1.06 -1.85 C3.55 -0.42, 6.03 1.01, 10.39 3.51 M1.06 -1.85 C4.22 -0.03, 7.39 1.79, 10.39 3.51 M10.39 3.51 C10.1 4.01, 9.82 4.5, 9.33 5.36 M10.39 3.51 C10.1 4.01, 9.82 4.51, 9.33 5.36 M9.33 5.36 C6.57 3.78, 3.81 2.19, 0 0 M9.33 5.36 C6.98 4.01, 4.64 2.67, 0 0 M0 0 C0 0, 0 0, 0 0 M0 0 C0 0, 0 0, 0 0" stroke="#00000000" stroke-width="1" fill="none"></path></g></g><g stroke-linecap="round"><g transform="translate(432.67733335494995 470.76399993896484) rotate(0 5.172000169754028 -1.761998176574707)" fill-rule="evenodd"><path d="M0 0 L9.28 -5.36 L10.34 -3.52 L1.06 1.84 L0 0" stroke="none" stroke-width="0" fill="#4285f4" fill-rule="evenodd"></path><path d="M0 0 C3.24 -1.87, 6.49 -3.75, 9.28 -5.36 M0 0 C3.06 -1.77, 6.12 -3.53, 9.28 -5.36 M9.28 -5.36 C9.59 -4.84, 9.89 -4.32, 10.34 -3.52 M9.28 -5.36 C9.7 -4.64, 10.11 -3.93, 10.34 -3.52 M10.34 -3.52 C7.9 -2.11, 5.46 -0.7, 1.06 1.84 M10.34 -3.52 C6.65 -1.39, 2.95 0.75, 1.06 1.84 M1.06 1.84 C0.73 1.26, 0.4 0.69, 0 0 M1.06 1.84 C0.75 1.3, 0.44 0.75, 0 0 M0 0 C0 0, 0 0, 0 0 M0 0 C0 0, 0 0, 0 0" stroke="#00000000" stroke-width="1" fill="none"></path></g></g><g stroke-linecap="round"><g transform="translate(441.4333333969116 455.58666706085205) rotate(0 1.059999942779541 5.360000133514404)" fill-rule="evenodd"><path d="M0 0 L2.12 0 L2.12 10.72 L0 10.72 L0 0" stroke="none" stroke-width="0" fill="#4285f4" fill-rule="evenodd"></path><path d="M0 0 C0.44 0, 0.88 0, 2.12 0 M0 0 C0.63 0, 1.26 0, 2.12 0 M2.12 0 C2.12 2.69, 2.12 5.39, 2.12 10.72 M2.12 0 C2.12 3.04, 2.12 6.09, 2.12 10.72 M2.12 10.72 C1.4 10.72, 0.67 10.72, 0 10.72 M2.12 10.72 C1.52 10.72, 0.92 10.72, 0 10.72 M0 10.72 C0 7.6, 0 4.47, 0 0 M0 10.72 C0 7.89, 0 5.06, 0 0 M0 0 C0 0, 0 0, 0 0 M0 0 C0 0, 0 0, 0 0" stroke="#00000000" stroke-width="1" fill="none"></path></g></g><g stroke-linecap="round" transform="translate(438.7933340072632 462.6000003814697) rotate(0 3.7066667079925537 3.7066667079925537)"><path d="M7.41 3.71 C7.41 3.92, 7.39 4.14, 7.36 4.35 C7.32 4.56, 7.26 4.77, 7.19 4.97 C7.12 5.18, 7.02 5.37, 6.92 5.56 C6.81 5.75, 6.68 5.92, 6.55 6.09 C6.41 6.25, 6.25 6.41, 6.09 6.55 C5.92 6.68, 5.75 6.81, 5.56 6.92 C5.37 7.02, 5.18 7.12, 4.97 7.19 C4.77 7.26, 4.56 7.32, 4.35 7.36 C4.14 7.39, 3.92 7.41, 3.71 7.41 C3.49 7.41, 3.27 7.39, 3.06 7.36 C2.85 7.32, 2.64 7.26, 2.44 7.19 C2.24 7.12, 2.04 7.02, 1.85 6.92 C1.67 6.81, 1.49 6.68, 1.32 6.55 C1.16 6.41, 1.01 6.25, 0.87 6.09 C0.73 5.92, 0.6 5.75, 0.5 5.56 C0.39 5.37, 0.3 5.18, 0.22 4.97 C0.15 4.77, 0.09 4.56, 0.06 4.35 C0.02 4.14, 0 3.92, 0 3.71 C0 3.49, 0.02 3.27, 0.06 3.06 C0.09 2.85, 0.15 2.64, 0.22 2.44 C0.3 2.24, 0.39 2.04, 0.5 1.85 C0.6 1.67, 0.73 1.49, 0.87 1.32 C1.01 1.16, 1.16 1.01, 1.32 0.87 C1.49 0.73, 1.67 0.6, 1.85 0.5 C2.04 0.39, 2.24 0.3, 2.44 0.22 C2.64 0.15, 2.85 0.09, 3.06 0.06 C3.27 0.02, 3.49 0, 3.71 0 C3.92 0, 4.14 0.02, 4.35 0.06 C4.56 0.09, 4.77 0.15, 4.97 0.22 C5.18 0.3, 5.37 0.39, 5.56 0.5 C5.75 0.6, 5.92 0.73, 6.09 0.87 C6.25 1.01, 6.41 1.16, 6.55 1.32 C6.68 1.49, 6.81 1.67, 6.92 1.85 C7.02 2.04, 7.12 2.24, 7.19 2.44 C7.26 2.64, 7.32 2.85, 7.36 3.06 C7.39 3.27, 7.4 3.6, 7.41 3.71 C7.42 3.81, 7.42 3.6, 7.41 3.71" stroke="none" stroke-width="0" fill="#aecbfa"></path><path d="M7.41 3.71 C7.41 3.92, 7.39 4.14, 7.36 4.35 C7.32 4.56, 7.26 4.77, 7.19 4.97 C7.12 5.18, 7.02 5.37, 6.92 5.56 C6.81 5.75, 6.68 5.92, 6.55 6.09 C6.41 6.25, 6.25 6.41, 6.09 6.55 C5.92 6.68, 5.75 6.81, 5.56 6.92 C5.37 7.02, 5.18 7.12, 4.97 7.19 C4.77 7.26, 4.56 7.32, 4.35 7.36 C4.14 7.39, 3.92 7.41, 3.71 7.41 C3.49 7.41, 3.27 7.39, 3.06 7.36 C2.85 7.32, 2.64 7.26, 2.44 7.19 C2.24 7.12, 2.04 7.02, 1.85 6.92 C1.67 6.81, 1.49 6.68, 1.32 6.55 C1.16 6.41, 1.01 6.25, 0.87 6.09 C0.73 5.92, 0.6 5.75, 0.5 5.56 C0.39 5.37, 0.3 5.18, 0.22 4.97 C0.15 4.77, 0.09 4.56, 0.06 4.35 C0.02 4.14, 0 3.92, 0 3.71 C0 3.49, 0.02 3.27, 0.06 3.06 C0.09 2.85, 0.15 2.64, 0.22 2.44 C0.3 2.24, 0.39 2.04, 0.5 1.85 C0.6 1.67, 0.73 1.49, 0.87 1.32 C1.01 1.16, 1.16 1.01, 1.32 0.87 C1.49 0.73, 1.67 0.6, 1.85 0.5 C2.04 0.39, 2.24 0.3, 2.44 0.22 C2.64 0.15, 2.85 0.09, 3.06 0.06 C3.27 0.02, 3.49 0, 3.71 0 C3.92 0, 4.14 0.02, 4.35 0.06 C4.56 0.09, 4.77 0.15, 4.97 0.22 C5.18 0.3, 5.37 0.39, 5.56 0.5 C5.75 0.6, 5.92 0.73, 6.09 0.87 C6.25 1.01, 6.41 1.16, 6.55 1.32 C6.68 1.49, 6.81 1.67, 6.92 1.85 C7.02 2.04, 7.12 2.24, 7.19 2.44 C7.26 2.64, 7.32 2.85, 7.36 3.06 C7.39 3.27, 7.4 3.6, 7.41 3.71 C7.42 3.81, 7.42 3.6, 7.41 3.71" stroke="transparent" stroke-width="1" fill="none"></path></g><g stroke-linecap="round" transform="translate(430.2866666316986 468.7466678619385) rotate(0 2.9200000762939453 2.9200000762939453)"><path d="M5.84 2.92 C5.84 3.09, 5.82 3.26, 5.8 3.43 C5.77 3.59, 5.72 3.76, 5.66 3.92 C5.61 4.08, 5.53 4.23, 5.45 4.38 C5.36 4.53, 5.27 4.67, 5.16 4.8 C5.05 4.93, 4.93 5.05, 4.8 5.16 C4.67 5.27, 4.53 5.36, 4.38 5.45 C4.23 5.53, 4.08 5.61, 3.92 5.66 C3.76 5.72, 3.59 5.77, 3.43 5.8 C3.26 5.82, 3.09 5.84, 2.92 5.84 C2.75 5.84, 2.58 5.82, 2.41 5.8 C2.25 5.77, 2.08 5.72, 1.92 5.66 C1.76 5.61, 1.61 5.53, 1.46 5.45 C1.31 5.36, 1.17 5.27, 1.04 5.16 C0.91 5.05, 0.79 4.93, 0.68 4.8 C0.57 4.67, 0.48 4.53, 0.39 4.38 C0.31 4.23, 0.23 4.08, 0.18 3.92 C0.12 3.76, 0.07 3.59, 0.04 3.43 C0.02 3.26, 0 3.09, 0 2.92 C0 2.75, 0.02 2.58, 0.04 2.41 C0.07 2.25, 0.12 2.08, 0.18 1.92 C0.23 1.76, 0.31 1.61, 0.39 1.46 C0.48 1.31, 0.57 1.17, 0.68 1.04 C0.79 0.91, 0.91 0.79, 1.04 0.68 C1.17 0.57, 1.31 0.48, 1.46 0.39 C1.61 0.31, 1.76 0.23, 1.92 0.18 C2.08 0.12, 2.25 0.07, 2.41 0.04 C2.58 0.02, 2.75 0, 2.92 0 C3.09 0, 3.26 0.02, 3.43 0.04 C3.59 0.07, 3.76 0.12, 3.92 0.18 C4.08 0.23, 4.23 0.31, 4.38 0.39 C4.53 0.48, 4.67 0.57, 4.8 0.68 C4.93 0.79, 5.05 0.91, 5.16 1.04 C5.27 1.17, 5.36 1.31, 5.45 1.46 C5.53 1.61, 5.61 1.76, 5.66 1.92 C5.72 2.08, 5.77 2.25, 5.8 2.41 C5.82 2.58, 5.83 2.84, 5.84 2.92 C5.85 3, 5.85 2.84, 5.84 2.92" stroke="none" stroke-width="0" fill="#aecbfa"></path><path d="M5.84 2.92 C5.84 3.09, 5.82 3.26, 5.8 3.43 C5.77 3.59, 5.72 3.76, 5.66 3.92 C5.61 4.08, 5.53 4.23, 5.45 4.38 C5.36 4.53, 5.27 4.67, 5.16 4.8 C5.05 4.93, 4.93 5.05, 4.8 5.16 C4.67 5.27, 4.53 5.36, 4.38 5.45 C4.23 5.53, 4.08 5.61, 3.92 5.66 C3.76 5.72, 3.59 5.77, 3.43 5.8 C3.26 5.82, 3.09 5.84, 2.92 5.84 C2.75 5.84, 2.58 5.82, 2.41 5.8 C2.25 5.77, 2.08 5.72, 1.92 5.66 C1.76 5.61, 1.61 5.53, 1.46 5.45 C1.31 5.36, 1.17 5.27, 1.04 5.16 C0.91 5.05, 0.79 4.93, 0.68 4.8 C0.57 4.67, 0.48 4.53, 0.39 4.38 C0.31 4.23, 0.23 4.08, 0.18 3.92 C0.12 3.76, 0.07 3.59, 0.04 3.43 C0.02 3.26, 0 3.09, 0 2.92 C0 2.75, 0.02 2.58, 0.04 2.41 C0.07 2.25, 0.12 2.08, 0.18 1.92 C0.23 1.76, 0.31 1.61, 0.39 1.46 C0.48 1.31, 0.57 1.17, 0.68 1.04 C0.79 0.91, 0.91 0.79, 1.04 0.68 C1.17 0.57, 1.31 0.48, 1.46 0.39 C1.61 0.31, 1.76 0.23, 1.92 0.18 C2.08 0.12, 2.25 0.07, 2.41 0.04 C2.58 0.02, 2.75 0, 2.92 0 C3.09 0, 3.26 0.02, 3.43 0.04 C3.59 0.07, 3.76 0.12, 3.92 0.18 C4.08 0.23, 4.23 0.31, 4.38 0.39 C4.53 0.48, 4.67 0.57, 4.8 0.68 C4.93 0.79, 5.05 0.91, 5.16 1.04 C5.27 1.17, 5.36 1.31, 5.45 1.46 C5.53 1.61, 5.61 1.76, 5.66 1.92 C5.72 2.08, 5.77 2.25, 5.8 2.41 C5.82 2.58, 5.83 2.84, 5.84 2.92 C5.85 3, 5.85 2.84, 5.84 2.92" stroke="transparent" stroke-width="1" fill="none"></path></g><g stroke-linecap="round" transform="translate(448.87333488464355 468.7466678619385) rotate(0 2.9200000762939453 2.9200000762939453)"><path d="M5.84 2.92 C5.84 3.09, 5.82 3.26, 5.8 3.43 C5.77 3.59, 5.72 3.76, 5.66 3.92 C5.61 4.08, 5.53 4.23, 5.45 4.38 C5.36 4.53, 5.27 4.67, 5.16 4.8 C5.05 4.93, 4.93 5.05, 4.8 5.16 C4.67 5.27, 4.53 5.36, 4.38 5.45 C4.23 5.53, 4.08 5.61, 3.92 5.66 C3.76 5.72, 3.59 5.77, 3.43 5.8 C3.26 5.82, 3.09 5.84, 2.92 5.84 C2.75 5.84, 2.58 5.82, 2.41 5.8 C2.25 5.77, 2.08 5.72, 1.92 5.66 C1.76 5.61, 1.61 5.53, 1.46 5.45 C1.31 5.36, 1.17 5.27, 1.04 5.16 C0.91 5.05, 0.79 4.93, 0.68 4.8 C0.57 4.67, 0.48 4.53, 0.39 4.38 C0.31 4.23, 0.23 4.08, 0.18 3.92 C0.12 3.76, 0.07 3.59, 0.04 3.43 C0.02 3.26, 0 3.09, 0 2.92 C0 2.75, 0.02 2.58, 0.04 2.41 C0.07 2.25, 0.12 2.08, 0.18 1.92 C0.23 1.76, 0.31 1.61, 0.39 1.46 C0.48 1.31, 0.57 1.17, 0.68 1.04 C0.79 0.91, 0.91 0.79, 1.04 0.68 C1.17 0.57, 1.31 0.48, 1.46 0.39 C1.61 0.31, 1.76 0.23, 1.92 0.18 C2.08 0.12, 2.25 0.07, 2.41 0.04 C2.58 0.02, 2.75 0, 2.92 0 C3.09 0, 3.26 0.02, 3.43 0.04 C3.59 0.07, 3.76 0.12, 3.92 0.18 C4.08 0.23, 4.23 0.31, 4.38 0.39 C4.53 0.48, 4.67 0.57, 4.8 0.68 C4.93 0.79, 5.05 0.91, 5.16 1.04 C5.27 1.17, 5.36 1.31, 5.45 1.46 C5.53 1.61, 5.61 1.76, 5.66 1.92 C5.72 2.08, 5.77 2.25, 5.8 2.41 C5.82 2.58, 5.83 2.84, 5.84 2.92 C5.85 3, 5.85 2.84, 5.84 2.92" stroke="none" stroke-width="0" fill="#aecbfa"></path><path d="M5.84 2.92 C5.84 3.09, 5.82 3.26, 5.8 3.43 C5.77 3.59, 5.72 3.76, 5.66 3.92 C5.61 4.08, 5.53 4.23, 5.45 4.38 C5.36 4.53, 5.27 4.67, 5.16 4.8 C5.05 4.93, 4.93 5.05, 4.8 5.16 C4.67 5.27, 4.53 5.36, 4.38 5.45 C4.23 5.53, 4.08 5.61, 3.92 5.66 C3.76 5.72, 3.59 5.77, 3.43 5.8 C3.26 5.82, 3.09 5.84, 2.92 5.84 C2.75 5.84, 2.58 5.82, 2.41 5.8 C2.25 5.77, 2.08 5.72, 1.92 5.66 C1.76 5.61, 1.61 5.53, 1.46 5.45 C1.31 5.36, 1.17 5.27, 1.04 5.16 C0.91 5.05, 0.79 4.93, 0.68 4.8 C0.57 4.67, 0.48 4.53, 0.39 4.38 C0.31 4.23, 0.23 4.08, 0.18 3.92 C0.12 3.76, 0.07 3.59, 0.04 3.43 C0.02 3.26, 0 3.09, 0 2.92 C0 2.75, 0.02 2.58, 0.04 2.41 C0.07 2.25, 0.12 2.08, 0.18 1.92 C0.23 1.76, 0.31 1.61, 0.39 1.46 C0.48 1.31, 0.57 1.17, 0.68 1.04 C0.79 0.91, 0.91 0.79, 1.04 0.68 C1.17 0.57, 1.31 0.48, 1.46 0.39 C1.61 0.31, 1.76 0.23, 1.92 0.18 C2.08 0.12, 2.25 0.07, 2.41 0.04 C2.58 0.02, 2.75 0, 2.92 0 C3.09 0, 3.26 0.02, 3.43 0.04 C3.59 0.07, 3.76 0.12, 3.92 0.18 C4.08 0.23, 4.23 0.31, 4.38 0.39 C4.53 0.48, 4.67 0.57, 4.8 0.68 C4.93 0.79, 5.05 0.91, 5.16 1.04 C5.27 1.17, 5.36 1.31, 5.45 1.46 C5.53 1.61, 5.61 1.76, 5.66 1.92 C5.72 2.08, 5.77 2.25, 5.8 2.41 C5.82 2.58, 5.83 2.84, 5.84 2.92 C5.85 3, 5.85 2.84, 5.84 2.92" stroke="transparent" stroke-width="1" fill="none"></path></g><g stroke-linecap="round" transform="translate(439.58000087738037 452.6666667461395) rotate(0 2.9200000762939453 2.9200000762939453)"><path d="M5.84 2.92 C5.84 3.09, 5.82 3.26, 5.8 3.43 C5.77 3.59, 5.72 3.76, 5.66 3.92 C5.61 4.08, 5.53 4.23, 5.45 4.38 C5.36 4.53, 5.27 4.67, 5.16 4.8 C5.05 4.93, 4.93 5.05, 4.8 5.16 C4.67 5.27, 4.53 5.36, 4.38 5.45 C4.23 5.53, 4.08 5.61, 3.92 5.66 C3.76 5.72, 3.59 5.77, 3.43 5.8 C3.26 5.82, 3.09 5.84, 2.92 5.84 C2.75 5.84, 2.58 5.82, 2.41 5.8 C2.25 5.77, 2.08 5.72, 1.92 5.66 C1.76 5.61, 1.61 5.53, 1.46 5.45 C1.31 5.36, 1.17 5.27, 1.04 5.16 C0.91 5.05, 0.79 4.93, 0.68 4.8 C0.57 4.67, 0.48 4.53, 0.39 4.38 C0.31 4.23, 0.23 4.08, 0.18 3.92 C0.12 3.76, 0.07 3.59, 0.04 3.43 C0.02 3.26, 0 3.09, 0 2.92 C0 2.75, 0.02 2.58, 0.04 2.41 C0.07 2.25, 0.12 2.08, 0.18 1.92 C0.23 1.76, 0.31 1.61, 0.39 1.46 C0.48 1.31, 0.57 1.17, 0.68 1.04 C0.79 0.91, 0.91 0.79, 1.04 0.68 C1.17 0.57, 1.31 0.48, 1.46 0.39 C1.61 0.31, 1.76 0.23, 1.92 0.18 C2.08 0.12, 2.25 0.07, 2.41 0.04 C2.58 0.02, 2.75 0, 2.92 0 C3.09 0, 3.26 0.02, 3.43 0.04 C3.59 0.07, 3.76 0.12, 3.92 0.18 C4.08 0.23, 4.23 0.31, 4.38 0.39 C4.53 0.48, 4.67 0.57, 4.8 0.68 C4.93 0.79, 5.05 0.91, 5.16 1.04 C5.27 1.17, 5.36 1.31, 5.45 1.46 C5.53 1.61, 5.61 1.76, 5.66 1.92 C5.72 2.08, 5.77 2.25, 5.8 2.41 C5.82 2.58, 5.83 2.84, 5.84 2.92 C5.85 3, 5.85 2.84, 5.84 2.92" stroke="none" stroke-width="0" fill="#aecbfa"></path><path d="M5.84 2.92 C5.84 3.09, 5.82 3.26, 5.8 3.43 C5.77 3.59, 5.72 3.76, 5.66 3.92 C5.61 4.08, 5.53 4.23, 5.45 4.38 C5.36 4.53, 5.27 4.67, 5.16 4.8 C5.05 4.93, 4.93 5.05, 4.8 5.16 C4.67 5.27, 4.53 5.36, 4.38 5.45 C4.23 5.53, 4.08 5.61, 3.92 5.66 C3.76 5.72, 3.59 5.77, 3.43 5.8 C3.26 5.82, 3.09 5.84, 2.92 5.84 C2.75 5.84, 2.58 5.82, 2.41 5.8 C2.25 5.77, 2.08 5.72, 1.92 5.66 C1.76 5.61, 1.61 5.53, 1.46 5.45 C1.31 5.36, 1.17 5.27, 1.04 5.16 C0.91 5.05, 0.79 4.93, 0.68 4.8 C0.57 4.67, 0.48 4.53, 0.39 4.38 C0.31 4.23, 0.23 4.08, 0.18 3.92 C0.12 3.76, 0.07 3.59, 0.04 3.43 C0.02 3.26, 0 3.09, 0 2.92 C0 2.75, 0.02 2.58, 0.04 2.41 C0.07 2.25, 0.12 2.08, 0.18 1.92 C0.23 1.76, 0.31 1.61, 0.39 1.46 C0.48 1.31, 0.57 1.17, 0.68 1.04 C0.79 0.91, 0.91 0.79, 1.04 0.68 C1.17 0.57, 1.31 0.48, 1.46 0.39 C1.61 0.31, 1.76 0.23, 1.92 0.18 C2.08 0.12, 2.25 0.07, 2.41 0.04 C2.58 0.02, 2.75 0, 2.92 0 C3.09 0, 3.26 0.02, 3.43 0.04 C3.59 0.07, 3.76 0.12, 3.92 0.18 C4.08 0.23, 4.23 0.31, 4.38 0.39 C4.53 0.48, 4.67 0.57, 4.8 0.68 C4.93 0.79, 5.05 0.91, 5.16 1.04 C5.27 1.17, 5.36 1.31, 5.45 1.46 C5.53 1.61, 5.61 1.76, 5.66 1.92 C5.72 2.08, 5.77 2.25, 5.8 2.41 C5.82 2.58, 5.83 2.84, 5.84 2.92 C5.85 3, 5.85 2.84, 5.84 2.92" stroke="transparent" stroke-width="1" fill="none"></path></g><g stroke-linecap="round" transform="translate(10 430) rotate(0 80 36)"><path d="M18 0 L142 0 L149.88 1.13 L155.5 4.5 L157.47 7.03 L159.72 13.78 L160 54 L158.88 61.88 L157.47 64.97 L152.97 69.47 L149.88 70.88 L142 72 L18 72 L10.13 70.88 L4.5 67.5 L2.53 64.97 L0.28 58.22 L0.28 13.78 L1.13 10.13 L4.5 4.5 L10.13 1.13 L18 0" stroke="none" stroke-width="0" fill="#DEDEDE"></path><path d="M18 0 M18 0 C64.2 0, 110.4 0, 142 0 M18 0 C48.63 0, 79.25 0, 142 0 M142 0 C154 0, 160 6, 160 18 M142 0 C154 0, 160 6, 160 18 M160 18 C160 31.79, 160 45.57, 160 54 M160 18 C160 26.23, 160 34.46, 160 54 M160 54 C160 66, 154 72, 142 72 M160 54 C160 66, 154 72, 142 72 M142 72 C104.44 72, 66.88 72, 18 72 M142 72 C97.25 72, 52.5 72, 18 72 M18 72 C6 72, 0 66, 0 54 M18 72 C6 72, 0 66, 0 54 M0 54 C0 45.68, 0 37.36, 0 18 M0 54 C0 43.88, 0 33.76, 0 18 M0 18 C0 6, 6 0, 18 0 M0 18 C0 6, 6 0, 18 0" stroke="#000" stroke-width="2" fill="none"></path></g><g transform="translate(75 459) rotate(0 42.5 7)"><text x="0" y="13" font-family="Helvetica, Segoe UI Emoji" font-size="12px" fill="#000000" text-anchor="start" style="white-space: pre;" direction="ltr">User</text></g><g stroke-linecap="round"><g transform="translate(26.5 450) rotate(0 16 16)" fill-rule="evenodd"><path d="M0 0 L32 0 L32 32 L0 32 L0 0" stroke="none" stroke-width="0" fill="#00000000" fill-rule="evenodd"></path><path d="M0 0 C7.53 0, 15.06 0, 32 0 M0 0 C6.83 0, 13.66 0, 32 0 M32 0 C32 7.27, 32 14.55, 32 32 M32 0 C32 10.93, 32 21.85, 32 32 M32 32 C21.49 32, 10.98 32, 0 32 M32 32 C22.32 32, 12.63 32, 0 32 M0 32 C0 19.44, 0 6.88, 0 0 M0 32 C0 24.83, 0 17.67, 0 0 M0 0 C0 0, 0 0, 0 0 M0 0 C0 0, 0 0, 0 0" stroke="#00000000" stroke-width="1" fill="none"></path></g></g><g stroke-linecap="round"><g transform="translate(48.5 466) rotate(0 -0.0066661834716796875 -3.3333330154418945)" fill-rule="evenodd"><path d="M0 0 L0 0 L1.3 -0.26 L2.35 -0.98 L3.06 -2.04 L3.32 -3.33 L3.06 -4.63 L2.35 -5.69 L1.3 -6.4 L0 -6.67 L-1.3 -6.4 L-2.36 -5.69 L-3.07 -4.63 L-3.33 -3.33 L-3.07 -2.04 L-2.36 -0.98 L-1.3 -0.26 L0 0 L0 0" stroke="none" stroke-width="0" fill="#000" fill-rule="evenodd"></path><path d="M0 0 C0 0, 0 0, 0 0 M0 0 C0 0, 0 0, 0 0 M0 0 C0.4 -0.08, 0.8 -0.16, 1.3 -0.26 M0 0 C0.3 -0.06, 0.6 -0.12, 1.3 -0.26 M1.3 -0.26 C1.67 -0.52, 2.05 -0.77, 2.35 -0.98 M1.3 -0.26 C1.65 -0.51, 2.01 -0.75, 2.35 -0.98 M2.35 -0.98 C2.56 -1.29, 2.77 -1.6, 3.06 -2.04 M2.35 -0.98 C2.56 -1.29, 2.77 -1.61, 3.06 -2.04 M3.06 -2.04 C3.12 -2.32, 3.17 -2.6, 3.32 -3.33 M3.06 -2.04 C3.14 -2.41, 3.21 -2.79, 3.32 -3.33 M3.32 -3.33 C3.25 -3.67, 3.19 -4, 3.06 -4.63 M3.32 -3.33 C3.25 -3.69, 3.18 -4.05, 3.06 -4.63 M3.06 -4.63 C2.83 -4.98, 2.59 -5.33, 2.35 -5.69 M3.06 -4.63 C2.84 -4.96, 2.61 -5.3, 2.35 -5.69 M2.35 -5.69 C1.98 -5.94, 1.6 -6.2, 1.3 -6.4 M2.35 -5.69 C1.96 -5.95, 1.58 -6.21, 1.3 -6.4 M1.3 -6.4 C1.02 -6.46, 0.75 -6.51, 0 -6.67 M1.3 -6.4 C1.02 -6.46, 0.74 -6.52, 0 -6.67 M0 -6.67 C-0.45 -6.58, -0.89 -6.49, -1.3 -6.4 M0 -6.67 C-0.37 -6.59, -0.74 -6.52, -1.3 -6.4 M-1.3 -6.4 C-1.65 -6.17, -1.99 -5.93, -2.36 -5.69 M-1.3 -6.4 C-1.68 -6.15, -2.06 -5.89, -2.36 -5.69 M-2.36 -5.69 C-2.56 -5.39, -2.76 -5.09, -3.07 -4.63 M-2.36 -5.69 C-2.63 -5.28, -2.9 -4.88, -3.07 -4.63 M-3.07 -4.63 C-3.12 -4.37, -3.18 -4.1, -3.33 -3.33 M-3.07 -4.63 C-3.18 -4.12, -3.28 -3.6, -3.33 -3.33 M-3.33 -3.33 C-3.28 -3.05, -3.22 -2.76, -3.07 -2.04 M-3.33 -3.33 C-3.25 -2.9, -3.16 -2.46, -3.07 -2.04 M-3.07 -2.04 C-2.86 -1.72, -2.64 -1.4, -2.36 -0.98 M-3.07 -2.04 C-2.82 -1.66, -2.56 -1.28, -2.36 -0.98 M-2.36 -0.98 C-2.03 -0.76, -1.7 -0.53, -1.3 -0.26 M-2.36 -0.98 C-2.1 -0.8, -1.84 -0.63, -1.3 -0.26 M-1.3 -0.26 C-0.87 -0.18, -0.44 -0.09, 0 0 M-1.3 -0.26 C-0.86 -0.17, -0.42 -0.09, 0 0 M0 0 C0 0, 0 0, 0 0 M0 0 C0 0, 0 0, 0 0 M0 0 C0 0, 0 0, 0 0 M0 0 C0 0, 0 0, 0 0" stroke="#00000000" stroke-width="1" fill="none"></path></g></g><g stroke-linecap="round"><g transform="translate(38.5 464.6666669845581) rotate(0 -0.006666660308837891 -4)" fill-rule="evenodd"><path d="M0 0 L0 0 L1.56 -0.31 L2.82 -1.17 L3.68 -2.44 L3.99 -4 L3.68 -5.56 L2.82 -6.83 L1.56 -7.69 L0 -8 L-1.56 -7.69 L-2.83 -6.83 L-3.69 -5.56 L-4 -4 L-3.69 -2.44 L-2.83 -1.17 L-1.56 -0.31 L0 0 L0 0" stroke="none" stroke-width="0" fill="#000" fill-rule="evenodd"></path><path d="M0 0 C0 0, 0 0, 0 0 M0 0 C0 0, 0 0, 0 0 M0 0 C0.47 -0.09, 0.94 -0.19, 1.56 -0.31 M0 0 C0.41 -0.08, 0.83 -0.17, 1.56 -0.31 M1.56 -0.31 C2.03 -0.63, 2.5 -0.95, 2.82 -1.17 M1.56 -0.31 C2.06 -0.66, 2.57 -1, 2.82 -1.17 M2.82 -1.17 C3.14 -1.64, 3.46 -2.11, 3.68 -2.44 M2.82 -1.17 C3.01 -1.44, 3.19 -1.72, 3.68 -2.44 M3.68 -2.44 C3.79 -3, 3.9 -3.55, 3.99 -4 M3.68 -2.44 C3.77 -2.92, 3.87 -3.39, 3.99 -4 M3.99 -4 C3.89 -4.51, 3.78 -5.01, 3.68 -5.56 M3.99 -4 C3.92 -4.35, 3.85 -4.7, 3.68 -5.56 M3.68 -5.56 C3.47 -5.86, 3.27 -6.16, 2.82 -6.83 M3.68 -5.56 C3.48 -5.85, 3.29 -6.14, 2.82 -6.83 M2.82 -6.83 C2.41 -7.11, 2 -7.38, 1.56 -7.69 M2.82 -6.83 C2.45 -7.08, 2.08 -7.33, 1.56 -7.69 M1.56 -7.69 C1.09 -7.78, 0.62 -7.88, 0 -8 M1.56 -7.69 C1.14 -7.77, 0.72 -7.86, 0 -8 M0 -8 C-0.47 -7.91, -0.93 -7.81, -1.56 -7.69 M0 -8 C-0.48 -7.9, -0.96 -7.81, -1.56 -7.69 M-1.56 -7.69 C-1.89 -7.46, -2.22 -7.24, -2.83 -6.83 M-1.56 -7.69 C-2.05 -7.35, -2.54 -7.02, -2.83 -6.83 M-2.83 -6.83 C-3.06 -6.49, -3.28 -6.16, -3.69 -5.56 M-2.83 -6.83 C-3.14 -6.37, -3.45 -5.91, -3.69 -5.56 M-3.69 -5.56 C-3.8 -5.02, -3.9 -4.47, -4 -4 M-3.69 -5.56 C-3.78 -5.12, -3.86 -4.67, -4 -4 M-4 -4 C-3.93 -3.67, -3.87 -3.35, -3.69 -2.44 M-4 -4 C-3.92 -3.62, -3.85 -3.23, -3.69 -2.44 M-3.69 -2.44 C-3.49 -2.15, -3.29 -1.85, -2.83 -1.17 M-3.69 -2.44 C-3.42 -2.05, -3.16 -1.65, -2.83 -1.17 M-2.83 -1.17 C-2.33 -0.83, -1.82 -0.49, -1.56 -0.31 M-2.83 -1.17 C-2.39 -0.87, -1.95 -0.58, -1.56 -0.31 M-1.56 -0.31 C-1.09 -0.22, -0.62 -0.13, 0 0 M-1.56 -0.31 C-0.99 -0.2, -0.42 -0.08, 0 0 M0 0 C0 0, 0 0, 0 0 M0 0 C0 0, 0 0, 0 0 M0 0 C0 0, 0 0, 0 0 M0 0 C0 0, 0 0, 0 0" stroke="#00000000" stroke-width="1" fill="none"></path></g></g><g stroke-linecap="round"><g transform="translate(48.5 468.6666679382324) rotate(0 4.76837158203125e-7 3.3333330154418945)" fill-rule="evenodd"><path d="M0 0 L0 0 L-2.18 0.23 L-4.58 0.92 L-6.53 2.06 L-7.12 2.81 L-7.33 3.67 L-7.33 6.67 L7.33 6.67 L7.33 3.67 L7.33 3.67 L7.12 2.81 L6.53 2.06 L4.58 0.92 L2.18 0.23 L0 0 L0 0" stroke="none" stroke-width="0" fill="#000" fill-rule="evenodd"></path><path d="M0 0 C0 0, 0 0, 0 0 M0 0 C0 0, 0 0, 0 0 M0 0 C-0.76 0.08, -1.53 0.16, -2.18 0.23 M0 0 C-0.53 0.06, -1.07 0.11, -2.18 0.23 M-2.18 0.23 C-2.81 0.41, -3.44 0.59, -4.58 0.92 M-2.18 0.23 C-2.94 0.45, -3.71 0.67, -4.58 0.92 M-4.58 0.92 C-5.11 1.23, -5.63 1.53, -6.53 2.06 M-4.58 0.92 C-5.24 1.3, -5.89 1.69, -6.53 2.06 M-6.53 2.06 C-6.74 2.33, -6.95 2.59, -7.12 2.81 M-6.53 2.06 C-6.68 2.25, -6.83 2.44, -7.12 2.81 M-7.12 2.81 C-7.19 3.11, -7.27 3.41, -7.33 3.67 M-7.12 2.81 C-7.19 3.1, -7.26 3.39, -7.33 3.67 M-7.33 3.67 C-7.33 4.76, -7.33 5.85, -7.33 6.67 M-7.33 3.67 C-7.33 4.32, -7.33 4.98, -7.33 6.67 M-7.33 6.67 C-2.49 6.67, 2.35 6.67, 7.33 6.67 M-7.33 6.67 C-2.11 6.67, 3.11 6.67, 7.33 6.67 M7.33 6.67 C7.33 5.99, 7.33 5.32, 7.33 3.67 M7.33 6.67 C7.33 5.79, 7.33 4.91, 7.33 3.67 M7.33 3.67 C7.33 3.67, 7.33 3.67, 7.33 3.67 M7.33 3.67 C7.33 3.67, 7.33 3.67, 7.33 3.67 M7.33 3.67 C7.28 3.44, 7.22 3.22, 7.12 2.81 M7.33 3.67 C7.27 3.43, 7.21 3.19, 7.12 2.81 M7.12 2.81 C6.93 2.57, 6.74 2.33, 6.53 2.06 M7.12 2.81 C6.94 2.59, 6.77 2.37, 6.53 2.06 M6.53 2.06 C5.93 1.71, 5.33 1.36, 4.58 0.92 M6.53 2.06 C5.77 1.61, 5 1.16, 4.58 0.92 M4.58 0.92 C3.95 0.74, 3.32 0.56, 2.18 0.23 M4.58 0.92 C3.63 0.65, 2.67 0.37, 2.18 0.23 M2.18 0.23 C1.34 0.14, 0.51 0.05, 0 0 M2.18 0.23 C1.31 0.14, 0.45 0.05, 0 0 M0 0 C0 0, 0 0, 0 0 M0 0 C0 0, 0 0, 0 0 M0 0 C0 0, 0 0, 0 0 M0 0 C0 0, 0 0, 0 0" stroke="#00000000" stroke-width="1" fill="none"></path></g></g><g stroke-linecap="round"><g transform="translate(38.5 467.3333339691162) rotate(0 -3.086666703224182 4)" fill-rule="evenodd"><path d="M0 0 L0 0 L-1.29 0.07 L-2.77 0.29 L-5.83 1.17 L-7.2 1.82 L-8.31 2.63 L-9.06 3.57 L-9.33 4.67 L-9.33 8 L0 8 L0 5 L0 5 L0.11 4.01 L0.56 2.83 L1.52 1.57 L3.16 0.37 L1.48 0.1 L0 0 L0 0" stroke="none" stroke-width="0" fill="#000" fill-rule="evenodd"></path><path d="M0 0 C0 0, 0 0, 0 0 M0 0 C0 0, 0 0, 0 0 M0 0 C-0.49 0.03, -0.98 0.06, -1.29 0.07 M0 0 C-0.27 0.02, -0.53 0.03, -1.29 0.07 M-1.29 0.07 C-1.82 0.15, -2.36 0.23, -2.77 0.29 M-1.29 0.07 C-1.77 0.14, -2.25 0.22, -2.77 0.29 M-2.77 0.29 C-3.44 0.48, -4.11 0.68, -5.83 1.17 M-2.77 0.29 C-3.87 0.61, -4.96 0.92, -5.83 1.17 M-5.83 1.17 C-6.21 1.35, -6.59 1.53, -7.2 1.82 M-5.83 1.17 C-6.31 1.4, -6.78 1.62, -7.2 1.82 M-7.2 1.82 C-7.48 2.02, -7.75 2.22, -8.31 2.63 M-7.2 1.82 C-7.53 2.06, -7.86 2.3, -8.31 2.63 M-8.31 2.63 C-8.57 2.95, -8.82 3.28, -9.06 3.57 M-8.31 2.63 C-8.48 2.83, -8.64 3.04, -9.06 3.57 M-9.06 3.57 C-9.14 3.9, -9.22 4.23, -9.33 4.67 M-9.06 3.57 C-9.13 3.85, -9.2 4.13, -9.33 4.67 M-9.33 4.67 C-9.33 5.62, -9.33 6.58, -9.33 8 M-9.33 4.67 C-9.33 5.7, -9.33 6.73, -9.33 8 M-9.33 8 C-6.23 8, -3.13 8, 0 8 M-9.33 8 C-7.44 8, -5.56 8, 0 8 M0 8 C0 7.32, 0 6.65, 0 5 M0 8 C0 7.15, 0 6.31, 0 5 M0 5 C0 5, 0 5, 0 5 M0 5 C0 5, 0 5, 0 5 M0 5 C0.04 4.66, 0.08 4.31, 0.11 4.01 M0 5 C0.04 4.61, 0.09 4.21, 0.11 4.01 M0.11 4.01 C0.22 3.73, 0.32 3.45, 0.56 2.83 M0.11 4.01 C0.26 3.62, 0.41 3.22, 0.56 2.83 M0.56 2.83 C0.77 2.55, 0.98 2.27, 1.52 1.57 M0.56 2.83 C0.77 2.55, 0.99 2.27, 1.52 1.57 M1.52 1.57 C2.12 1.14, 2.71 0.7, 3.16 0.37 M1.52 1.57 C2.04 1.19, 2.55 0.82, 3.16 0.37 M3.16 0.37 C2.68 0.29, 2.19 0.21, 1.48 0.1 M3.16 0.37 C2.64 0.29, 2.11 0.2, 1.48 0.1 M1.48 0.1 C0.9 0.06, 0.32 0.02, 0 0 M1.48 0.1 C1.05 0.07, 0.63 0.04, 0 0 M0 0 C0 0, 0 0, 0 0 M0 0 C0 0, 0 0, 0 0 M0 0 C0 0, 0 0, 0 0 M0 0 C0 0, 0 0, 0 0" stroke="#00000000" stroke-width="1" fill="none"></path></g></g><g stroke-linecap="round"><g transform="translate(171 149.8406741573034) rotate(0 119.5 0.07966292134830155)"><path d="M0 0 C39.83 0.03, 199.17 0.13, 239 0.16 M0 0 C39.83 0.03, 199.17 0.13, 239 0.16" stroke="#000000" stroke-width="1" fill="none"></path></g><g transform="translate(171 149.8406741573034) rotate(0 119.5 0.07966292134830155)"><path d="M239 0.16 L225.4 6.49 L225.41 -6.19 L239 0.16" stroke="none" stroke-width="0" fill="#000000" fill-rule="evenodd"></path><path d="M239 0.16 C235.84 1.63, 232.68 3.1, 225.4 6.49 M239 0.16 C233.8 2.58, 228.6 5, 225.4 6.49 M225.4 6.49 C225.4 2.21, 225.41 -2.08, 225.41 -6.19 M225.4 6.49 C225.4 3.95, 225.4 1.41, 225.41 -6.19 M225.41 -6.19 C230.71 -3.71, 236.01 -1.24, 239 0.16 M225.41 -6.19 C228.92 -4.55, 232.43 -2.91, 239 0.16 M239 0.16 C239 0.16, 239 0.16, 239 0.16 M239 0.16 C239 0.16, 239 0.16, 239 0.16" stroke="#000000" stroke-width="1" fill="none"></path></g></g><g stroke-linecap="round"><g transform="translate(450 190) rotate(0 0 40)"><path d="M0 0 C0 13.33, 0 66.67, 0 80 M0 0 C0 13.33, 0 66.67, 0 80" stroke="#000000" stroke-width="1" fill="none"></path></g><g transform="translate(450 190) rotate(0 0 40)"><path d="M0 80 L-6.34 66.41 L6.34 66.41 L0 80" stroke="none" stroke-width="0" fill="#000000" fill-rule="evenodd"></path><path d="M0 80 C-2 75.72, -3.99 71.44, -6.34 66.41 M0 80 C-1.36 77.09, -2.72 74.18, -6.34 66.41 M-6.34 66.41 C-1.71 66.41, 2.92 66.41, 6.34 66.41 M-6.34 66.41 C-3.75 66.41, -1.15 66.41, 6.34 66.41 M6.34 66.41 C4.62 70.08, 2.91 73.76, 0 80 M6.34 66.41 C4.05 71.32, 1.76 76.23, 0 80 M0 80 C0 80, 0 80, 0 80 M0 80 C0 80, 0 80, 0 80" stroke="#000000" stroke-width="1" fill="none"></path></g></g><g stroke-linecap="round"><g transform="translate(450 350) rotate(0 0 40)"><path d="M0 0 C0 13.33, 0 66.67, 0 80 M0 0 C0 13.33, 0 66.67, 0 80" stroke="#000000" stroke-width="1" fill="none"></path></g><g transform="translate(450 350) rotate(0 0 40)"><path d="M0 80 L-6.34 66.41 L6.34 66.41 L0 80" stroke="none" stroke-width="0" fill="#000000" fill-rule="evenodd"></path><path d="M0 80 C-1.81 76.13, -3.61 72.25, -6.34 66.41 M0 80 C-1.3 77.21, -2.6 74.41, -6.34 66.41 M-6.34 66.41 C-1.68 66.41, 2.98 66.41, 6.34 66.41 M-6.34 66.41 C-2.11 66.41, 2.12 66.41, 6.34 66.41 M6.34 66.41 C4.73 69.87, 3.11 73.32, 0 80 M6.34 66.41 C3.83 71.79, 1.32 77.18, 0 80 M0 80 C0 80, 0 80, 0 80 M0 80 C0 80, 0 80, 0 80" stroke="#000000" stroke-width="1" fill="none"></path></g></g><g stroke-linecap="round"><g transform="translate(409 450) rotate(0 -119.5 0)"><path d="M0 0 C-39.83 0, -199.17 0, -239 0 M0 0 C-39.83 0, -199.17 0, -239 0" stroke="#000000" stroke-width="1" fill="none"></path></g><g transform="translate(409 450) rotate(0 -119.5 0)"><path d="M-239 0 L-225.41 -6.34 L-225.41 6.34 L-239 0" stroke="none" stroke-width="0" fill="#000000" fill-rule="evenodd"></path><path d="M-239 0 C-234.68 -2.01, -230.36 -4.03, -225.41 -6.34 M-239 0 C-235.32 -1.71, -231.65 -3.43, -225.41 -6.34 M-225.41 -6.34 C-225.41 -2.86, -225.41 0.61, -225.41 6.34 M-225.41 -6.34 C-225.41 -1.48, -225.41 3.37, -225.41 6.34 M-225.41 6.34 C-229.99 4.2, -234.58 2.06, -239 0 M-225.41 6.34 C-228.51 4.89, -231.61 3.44, -239 0 M-239 0 C-239 0, -239 0, -239 0 M-239 0 C-239 0, -239 0, -239 0" stroke="#000000" stroke-width="1" fill="none"></path></g></g><g stroke-linecap="round"><g transform="translate(170 470) rotate(0 119 0)"><path d="M0 0 C39.67 0, 198.33 0, 238 0 M0 0 C39.67 0, 198.33 0, 238 0" stroke="#000000" stroke-width="1" fill="none"></path></g><g transform="translate(170 470) rotate(0 119 0)"><path d="M238 0 L224.41 6.34 L224.41 -6.34 L238 0" stroke="none" stroke-width="0" fill="#000000" fill-rule="evenodd"></path><path d="M238 0 C234.16 1.79, 230.32 3.58, 224.41 6.34 M238 0 C234.44 1.66, 230.88 3.32, 224.41 6.34 M224.41 6.34 C224.41 1.3, 224.41 -3.73, 224.41 -6.34 M224.41 6.34 C224.41 2.49, 224.41 -1.36, 224.41 -6.34 M224.41 -6.34 C227.69 -4.81, 230.97 -3.28, 238 0 M224.41 -6.34 C227.21 -5.03, 230.01 -3.73, 238 0 M238 0 C238 0, 238 0, 238 0 M238 0 C238 0, 238 0, 238 0" stroke="#000000" stroke-width="1" fill="none"></path></g></g><g stroke-linecap="round"><g transform="translate(530 430) rotate(0 0 -40)"><path d="M0 0 C0 -13.33, 0 -66.67, 0 -80 M0 0 C0 -13.33, 0 -66.67, 0 -80" stroke="#000000" stroke-width="1" fill="none"></path></g><g transform="translate(530 430) rotate(0 0 -40)"><path d="M0 -80 L6.34 -66.41 L-6.34 -66.41 L0 -80" stroke="none" stroke-width="0" fill="#000000" fill-rule="evenodd"></path><path d="M0 -80 C1.94 -75.83, 3.89 -71.66, 6.34 -66.41 M0 -80 C1.81 -76.11, 3.63 -72.23, 6.34 -66.41 M6.34 -66.41 C1.49 -66.41, -3.36 -66.41, -6.34 -66.41 M6.34 -66.41 C1.44 -66.41, -3.45 -66.41, -6.34 -66.41 M-6.34 -66.41 C-4.02 -71.38, -1.7 -76.35, 0 -80 M-6.34 -66.41 C-4.06 -71.3, -1.77 -76.19, 0 -80 M0 -80 C0 -80, 0 -80, 0 -80 M0 -80 C0 -80, 0 -80, 0 -80" stroke="#000000" stroke-width="1" fill="none"></path></g></g><g stroke-linecap="round"><g transform="translate(529.9880952380954 269) rotate(0 -0.49404761904770567 -41.5)"><path d="M0 0 C-0.16 -13.83, -0.82 -69.17, -0.99 -83 M0 0 C-0.16 -13.83, -0.82 -69.17, -0.99 -83" stroke="#000000" stroke-width="1" fill="none"></path></g><g transform="translate(529.9880952380954 269) rotate(0 -0.49404761904770567 -41.5)"><path d="M-0.99 -83 L5.51 -69.48 L-7.17 -69.33 L-0.99 -83" stroke="none" stroke-width="0" fill="#000000" fill-rule="evenodd"></path><path d="M-0.99 -83 C1.03 -78.81, 3.04 -74.62, 5.51 -69.48 M-0.99 -83 C0.86 -79.16, 2.71 -75.32, 5.51 -69.48 M5.51 -69.48 C2.83 -69.45, 0.15 -69.42, -7.17 -69.33 M5.51 -69.48 C1.9 -69.44, -1.71 -69.4, -7.17 -69.33 M-7.17 -69.33 C-4.92 -74.31, -2.67 -79.29, -0.99 -83 M-7.17 -69.33 C-5.57 -72.86, -3.98 -76.38, -0.99 -83 M-0.99 -83 C-0.99 -83, -0.99 -83, -0.99 -83 M-0.99 -83 C-0.99 -83, -0.99 -83, -0.99 -83" stroke="#000000" stroke-width="1" fill="none"></path></g></g><g stroke-linecap="round" transform="translate(290 10) rotate(0 190 290)"><path d="M0 0 C95.23 0, 190.46 0, 380 0 M0 0 C133.58 0, 267.16 0, 380 0 M380 0 C380 226.53, 380 453.07, 380 580 M380 0 C380 179.36, 380 358.73, 380 580 M380 580 C261.97 580, 143.93 580, 0 580 M380 580 C299.2 580, 218.4 580, 0 580 M0 580 C0 376.59, 0 173.18, 0 0 M0 580 C0 379.18, 0 178.36, 0 0" stroke="#4285f4" stroke-width="1" fill="none"></path></g><g stroke-linecap="round"><g transform="translate(610 10) rotate(0 26 26)" fill-rule="evenodd"><path d="M0 0 L52 0 L52 52 L0 52 L0 0" stroke="none" stroke-width="0" fill="#00000000" fill-rule="evenodd"></path><path d="M0 0 C15.29 0, 30.57 0, 52 0 M0 0 C16.64 0, 33.28 0, 52 0 M52 0 C52 13.34, 52 26.68, 52 52 M52 0 C52 12.94, 52 25.87, 52 52 M52 52 C32.56 52, 13.13 52, 0 52 M52 52 C39.15 52, 26.29 52, 0 52 M0 52 C0 35.75, 0 19.49, 0 0 M0 52 C0 31.87, 0 11.74, 0 0 M0 0 C0 0, 0 0, 0 0 M0 0 C0 0, 0 0, 0 0" stroke="#00000000" stroke-width="1" fill="none"></path></g></g><g stroke-linecap="round"><g transform="translate(635.8000011444092 26.720000684261322) rotate(0 0.1999988555908203 9.280000478029251)" fill-rule="evenodd"><path d="M16.13 5.03 L16.13 5.03 L15.34 2.32 L14.12 -0.16 L12.52 -2.39 L10.57 -4.31 L8.32 -5.88 L5.81 -7.06 L3.09 -7.8 L0.2 -8.05 L-4.31 -7.42 L-8.34 -5.63 L-11.7 -2.86 L-14.21 0.7 L-16.58 1.18 L-18.77 2.07 L-20.74 3.33 L-22.45 4.91 L-23.85 6.77 L-24.91 8.87 L-25.57 11.16 L-25.8 13.61 L-25.54 16.23 L-24.78 18.67 L-23.58 20.88 L-21.99 22.8 L-20.06 24.39 L-17.86 25.59 L-15.42 26.35 L-12.8 26.61 L15.37 26.61 L15.37 26.61 L17.55 26.39 L19.58 25.76 L21.42 24.76 L23.03 23.44 L24.35 21.84 L25.35 20 L25.98 17.96 L26.2 15.78 L25.42 11.74 L23.28 8.41 L20.08 6.07 L16.13 5.03 L16.13 5.03" stroke="none" stroke-width="0" fill="#4285f4" fill-rule="evenodd"></path><path d="M16.13 5.03 C16.13 5.03, 16.13 5.03, 16.13 5.03 M16.13 5.03 C16.13 5.03, 16.13 5.03, 16.13 5.03 M16.13 5.03 C15.95 4.42, 15.77 3.8, 15.34 2.32 M16.13 5.03 C15.83 4.01, 15.53 2.98, 15.34 2.32 M15.34 2.32 C15.06 1.75, 14.78 1.17, 14.12 -0.16 M15.34 2.32 C15.01 1.65, 14.69 0.98, 14.12 -0.16 M14.12 -0.16 C13.6 -0.89, 13.07 -1.62, 12.52 -2.39 M14.12 -0.16 C13.7 -0.75, 13.28 -1.34, 12.52 -2.39 M12.52 -2.39 C11.97 -2.93, 11.42 -3.48, 10.57 -4.31 M12.52 -2.39 C11.76 -3.14, 11 -3.89, 10.57 -4.31 M10.57 -4.31 C9.9 -4.78, 9.23 -5.24, 8.32 -5.88 M10.57 -4.31 C10.1 -4.64, 9.63 -4.96, 8.32 -5.88 M8.32 -5.88 C7.71 -6.17, 7.11 -6.45, 5.81 -7.06 M8.32 -5.88 C7.73 -6.16, 7.15 -6.43, 5.81 -7.06 M5.81 -7.06 C4.76 -7.34, 3.71 -7.63, 3.09 -7.8 M5.81 -7.06 C5.13 -7.24, 4.45 -7.43, 3.09 -7.8 M3.09 -7.8 C2.38 -7.86, 1.67 -7.92, 0.2 -8.05 M3.09 -7.8 C2.17 -7.88, 1.25 -7.96, 0.2 -8.05 M0.2 -8.05 C-1.15 -7.86, -2.49 -7.67, -4.31 -7.42 M0.2 -8.05 C-1.17 -7.86, -2.53 -7.67, -4.31 -7.42 M-4.31 -7.42 C-5.26 -7, -6.2 -6.58, -8.34 -5.63 M-4.31 -7.42 C-5.45 -6.91, -6.58 -6.41, -8.34 -5.63 M-8.34 -5.63 C-9.29 -4.84, -10.24 -4.06, -11.7 -2.86 M-8.34 -5.63 C-9.21 -4.9, -10.09 -4.18, -11.7 -2.86 M-11.7 -2.86 C-12.31 -1.98, -12.93 -1.11, -14.21 0.7 M-11.7 -2.86 C-12.68 -1.46, -13.67 -0.06, -14.21 0.7 M-14.21 0.7 C-14.77 0.81, -15.34 0.93, -16.58 1.18 M-14.21 0.7 C-14.9 0.84, -15.59 0.98, -16.58 1.18 M-16.58 1.18 C-17.27 1.46, -17.96 1.74, -18.77 2.07 M-16.58 1.18 C-17.12 1.4, -17.65 1.61, -18.77 2.07 M-18.77 2.07 C-19.18 2.33, -19.6 2.6, -20.74 3.33 M-18.77 2.07 C-19.44 2.49, -20.1 2.92, -20.74 3.33 M-20.74 3.33 C-21.38 3.91, -22.01 4.5, -22.45 4.91 M-20.74 3.33 C-21.18 3.73, -21.62 4.14, -22.45 4.91 M-22.45 4.91 C-22.86 5.45, -23.27 6, -23.85 6.77 M-22.45 4.91 C-22.76 5.32, -23.07 5.73, -23.85 6.77 M-23.85 6.77 C-24.22 7.5, -24.59 8.24, -24.91 8.87 M-23.85 6.77 C-24.25 7.56, -24.65 8.36, -24.91 8.87 M-24.91 8.87 C-25.13 9.63, -25.35 10.4, -25.57 11.16 M-24.91 8.87 C-25.13 9.65, -25.36 10.42, -25.57 11.16 M-25.57 11.16 C-25.63 11.85, -25.7 12.54, -25.8 13.61 M-25.57 11.16 C-25.66 12.09, -25.74 13.02, -25.8 13.61 M-25.8 13.61 C-25.74 14.19, -25.68 14.76, -25.54 16.23 M-25.8 13.61 C-25.7 14.57, -25.61 15.53, -25.54 16.23 M-25.54 16.23 C-25.24 17.18, -24.94 18.14, -24.78 18.67 M-25.54 16.23 C-25.26 17.11, -24.99 18, -24.78 18.67 M-24.78 18.67 C-24.31 19.54, -23.84 20.4, -23.58 20.88 M-24.78 18.67 C-24.35 19.45, -23.93 20.23, -23.58 20.88 M-23.58 20.88 C-23.25 21.28, -22.92 21.68, -21.99 22.8 M-23.58 20.88 C-23.18 21.36, -22.78 21.85, -21.99 22.8 M-21.99 22.8 C-21.33 23.35, -20.67 23.89, -20.06 24.39 M-21.99 22.8 C-21.55 23.16, -21.12 23.52, -20.06 24.39 M-20.06 24.39 C-19.5 24.7, -18.93 25.01, -17.86 25.59 M-20.06 24.39 C-19.4 24.75, -18.73 25.12, -17.86 25.59 M-17.86 25.59 C-17.11 25.82, -16.36 26.05, -15.42 26.35 M-17.86 25.59 C-17.15 25.81, -16.44 26.03, -15.42 26.35 M-15.42 26.35 C-14.46 26.45, -13.51 26.54, -12.8 26.61 M-15.42 26.35 C-14.39 26.45, -13.35 26.56, -12.8 26.61 M-12.8 26.61 C-2.42 26.61, 7.96 26.61, 15.37 26.61 M-12.8 26.61 C-3.59 26.61, 5.62 26.61, 15.37 26.61 M15.37 26.61 C15.37 26.61, 15.37 26.61, 15.37 26.61 M15.37 26.61 C15.37 26.61, 15.37 26.61, 15.37 26.61 M15.37 26.61 C16.16 26.53, 16.96 26.45, 17.55 26.39 M15.37 26.61 C16 26.55, 16.64 26.49, 17.55 26.39 M17.55 26.39 C18.23 26.18, 18.91 25.97, 19.58 25.76 M17.55 26.39 C18.26 26.17, 18.96 25.95, 19.58 25.76 M19.58 25.76 C20.27 25.39, 20.96 25.01, 21.42 24.76 M19.58 25.76 C19.98 25.55, 20.38 25.33, 21.42 24.76 M21.42 24.76 C21.8 24.45, 22.18 24.14, 23.03 23.44 M21.42 24.76 C21.75 24.49, 22.07 24.23, 23.03 23.44 M23.03 23.44 C23.33 23.07, 23.64 22.69, 24.35 21.84 M23.03 23.44 C23.44 22.94, 23.86 22.43, 24.35 21.84 M24.35 21.84 C24.63 21.33, 24.9 20.82, 25.35 20 M24.35 21.84 C24.63 21.32, 24.91 20.8, 25.35 20 M25.35 20 C25.48 19.56, 25.62 19.12, 25.98 17.96 M25.35 20 C25.52 19.45, 25.69 18.9, 25.98 17.96 M25.98 17.96 C26.04 17.38, 26.1 16.79, 26.2 15.78 M25.98 17.96 C26.05 17.31, 26.11 16.67, 26.2 15.78 M26.2 15.78 C25.92 14.35, 25.65 12.92, 25.42 11.74 M26.2 15.78 C25.93 14.38, 25.66 12.97, 25.42 11.74 M25.42 11.74 C24.71 10.65, 24.01 9.55, 23.28 8.41 M25.42 11.74 C24.59 10.45, 23.75 9.15, 23.28 8.41 M23.28 8.41 C22.25 7.66, 21.22 6.91, 20.08 6.07 M23.28 8.41 C22.36 7.74, 21.44 7.07, 20.08 6.07 M20.08 6.07 C18.62 5.69, 17.17 5.31, 16.13 5.03 M20.08 6.07 C19.2 5.84, 18.33 5.61, 16.13 5.03 M16.13 5.03 C16.13 5.03, 16.13 5.03, 16.13 5.03 M16.13 5.03 C16.13 5.03, 16.13 5.03, 16.13 5.03 M16.13 5.03 C16.13 5.03, 16.13 5.03, 16.13 5.03 M16.13 5.03 C16.13 5.03, 16.13 5.03, 16.13 5.03" stroke="#00000000" stroke-width="1" fill="none"></path></g></g><g stroke-linecap="round"><g transform="translate(637.0000006854534 39) rotate(0 -1.0000001043081284 -3)" fill-rule="evenodd"><path d="M14.17 10 L-14 10 L-14 10 L-17.37 9.32 L-20.13 7.46 L-21.99 4.71 L-22.67 1.33 L-21.99 -2.04 L-20.13 -4.8 L-17.37 -6.65 L-14 -7.33 L-12.46 -7.33 L-12.46 -7.33 L-10.84 -10.8 L-8.24 -13.54 L-4.89 -15.35 L-1 -16 L1.4 -15.76 L3.64 -15.06 L5.67 -13.97 L7.43 -12.51 L8.88 -10.75 L9.98 -8.72 L10.67 -6.49 L10.92 -4.08 L10.92 -3 L14.17 -3 L14.17 -3 L16.7 -2.49 L18.77 -1.1 L20.16 0.97 L20.67 3.5 L20.16 6.03 L18.77 8.1 L16.7 9.49 L14.17 10 L14.17 10" stroke="none" stroke-width="0" fill="#aecbfa" fill-rule="evenodd"></path><path d="M14.17 10 C8.41 10, 2.65 10, -14 10 M14.17 10 C4.31 10, -5.55 10, -14 10 M-14 10 C-14 10, -14 10, -14 10 M-14 10 C-14 10, -14 10, -14 10 M-14 10 C-14.88 9.82, -15.75 9.65, -17.37 9.32 M-14 10 C-14.72 9.85, -15.45 9.71, -17.37 9.32 M-17.37 9.32 C-18.14 8.8, -18.9 8.29, -20.13 7.46 M-17.37 9.32 C-18.38 8.64, -19.39 7.96, -20.13 7.46 M-20.13 7.46 C-20.82 6.44, -21.5 5.42, -21.99 4.71 M-20.13 7.46 C-20.73 6.57, -21.34 5.67, -21.99 4.71 M-21.99 4.71 C-22.22 3.54, -22.46 2.36, -22.67 1.33 M-21.99 4.71 C-22.15 3.89, -22.32 3.07, -22.67 1.33 M-22.67 1.33 C-22.44 0.2, -22.21 -0.94, -21.99 -2.04 M-22.67 1.33 C-22.49 0.46, -22.31 -0.42, -21.99 -2.04 M-21.99 -2.04 C-21.25 -3.13, -20.51 -4.22, -20.13 -4.8 M-21.99 -2.04 C-21.55 -2.69, -21.11 -3.35, -20.13 -4.8 M-20.13 -4.8 C-19.48 -5.23, -18.83 -5.67, -17.37 -6.65 M-20.13 -4.8 C-19.05 -5.52, -17.97 -6.25, -17.37 -6.65 M-17.37 -6.65 C-16.61 -6.81, -15.85 -6.96, -14 -7.33 M-17.37 -6.65 C-16.58 -6.81, -15.78 -6.97, -14 -7.33 M-14 -7.33 C-13.51 -7.33, -13.01 -7.33, -12.46 -7.33 M-14 -7.33 C-13.39 -7.33, -12.77 -7.33, -12.46 -7.33 M-12.46 -7.33 C-12.46 -7.33, -12.46 -7.33, -12.46 -7.33 M-12.46 -7.33 C-12.46 -7.33, -12.46 -7.33, -12.46 -7.33 M-12.46 -7.33 C-11.93 -8.46, -11.4 -9.59, -10.84 -10.8 M-12.46 -7.33 C-11.89 -8.55, -11.32 -9.76, -10.84 -10.8 M-10.84 -10.8 C-10.12 -11.56, -9.4 -12.32, -8.24 -13.54 M-10.84 -10.8 C-9.96 -11.73, -9.08 -12.66, -8.24 -13.54 M-8.24 -13.54 C-7.06 -14.18, -5.88 -14.82, -4.89 -15.35 M-8.24 -13.54 C-7.51 -13.94, -6.79 -14.33, -4.89 -15.35 M-4.89 -15.35 C-3.97 -15.5, -3.05 -15.66, -1 -16 M-4.89 -15.35 C-3.88 -15.52, -2.87 -15.69, -1 -16 M-1 -16 C-0.07 -15.91, 0.87 -15.81, 1.4 -15.76 M-1 -16 C-0.11 -15.91, 0.78 -15.82, 1.4 -15.76 M1.4 -15.76 C1.97 -15.58, 2.55 -15.4, 3.64 -15.06 M1.4 -15.76 C1.89 -15.61, 2.38 -15.46, 3.64 -15.06 M3.64 -15.06 C4.43 -14.63, 5.23 -14.2, 5.67 -13.97 M3.64 -15.06 C4.2 -14.76, 4.75 -14.46, 5.67 -13.97 M5.67 -13.97 C6.14 -13.57, 6.62 -13.18, 7.43 -12.51 M5.67 -13.97 C6.27 -13.47, 6.88 -12.97, 7.43 -12.51 M7.43 -12.51 C8.01 -11.81, 8.59 -11.1, 8.88 -10.75 M7.43 -12.51 C8.01 -11.81, 8.59 -11.11, 8.88 -10.75 M8.88 -10.75 C9.26 -10.06, 9.63 -9.37, 9.98 -8.72 M8.88 -10.75 C9.23 -10.11, 9.57 -9.47, 9.98 -8.72 M9.98 -8.72 C10.14 -8.22, 10.29 -7.72, 10.67 -6.49 M9.98 -8.72 C10.19 -8.04, 10.41 -7.35, 10.67 -6.49 M10.67 -6.49 C10.76 -5.62, 10.85 -4.75, 10.92 -4.08 M10.67 -6.49 C10.74 -5.87, 10.8 -5.25, 10.92 -4.08 M10.92 -4.08 C10.92 -3.7, 10.92 -3.31, 10.92 -3 M10.92 -4.08 C10.92 -3.69, 10.92 -3.3, 10.92 -3 M10.92 -3 C12.03 -3, 13.14 -3, 14.17 -3 M10.92 -3 C11.72 -3, 12.52 -3, 14.17 -3 M14.17 -3 C14.17 -3, 14.17 -3, 14.17 -3 M14.17 -3 C14.17 -3, 14.17 -3, 14.17 -3 M14.17 -3 C14.99 -2.83, 15.82 -2.67, 16.7 -2.49 M14.17 -3 C14.68 -2.9, 15.2 -2.79, 16.7 -2.49 M16.7 -2.49 C17.3 -2.09, 17.89 -1.69, 18.77 -1.1 M16.7 -2.49 C17.43 -2, 18.15 -1.51, 18.77 -1.1 M18.77 -1.1 C19.16 -0.51, 19.56 0.08, 20.16 0.97 M18.77 -1.1 C19.05 -0.68, 19.33 -0.26, 20.16 0.97 M20.16 0.97 C20.33 1.85, 20.51 2.73, 20.67 3.5 M20.16 0.97 C20.31 1.74, 20.47 2.52, 20.67 3.5 M20.67 3.5 C20.56 4.04, 20.45 4.58, 20.16 6.03 M20.67 3.5 C20.48 4.41, 20.3 5.33, 20.16 6.03 M20.16 6.03 C19.82 6.53, 19.49 7.02, 18.77 8.1 M20.16 6.03 C19.82 6.54, 19.48 7.04, 18.77 8.1 M18.77 8.1 C18.29 8.42, 17.82 8.74, 16.7 9.49 M18.77 8.1 C18.04 8.58, 17.32 9.07, 16.7 9.49 M16.7 9.49 C15.85 9.66, 14.99 9.83, 14.17 10 M16.7 9.49 C16.14 9.6, 15.59 9.71, 14.17 10 M14.17 10 C14.17 10, 14.17 10, 14.17 10 M14.17 10 C14.17 10, 14.17 10, 14.17 10 M14.17 10 C14.17 10, 14.17 10, 14.17 10 M14.17 10 C14.17 10, 14.17 10, 14.17 10" stroke="#4285f4" stroke-width="1" fill="none"></path></g></g></svg>